<svg width="170" height="90" viewBox="0 0 170 90" fill="none" xmlns="http://www.w3.org/2000/svg">
<rect x="0.5" y="0.5" width="169" height="89" rx="3.5" fill="white" stroke="#AFB1B8"/>
<path d="M87.5178 43.3533C87.0832 42.7431 86.8753 42.022 86.9246 41.2962V38.3135C86.9246 37.3992 87.1212 36.7044 87.5144 36.2291C87.9076 35.7537 88.583 35.517 89.5405 35.5191C90.4402 35.5191 91.0789 35.7213 91.4565 36.1259C91.8685 36.6421 92.0689 37.2733 92.023 37.91V38.6109H90.4135V37.9009C90.4192 37.6685 90.4036 37.4361 90.3669 37.2061C90.3437 37.0488 90.2627 36.9033 90.1369 36.7934C89.9717 36.675 89.7635 36.6175 89.5538 36.6326C89.3333 36.6176 89.1146 36.6782 88.9406 36.8025C88.8005 36.9243 88.707 37.0838 88.6741 37.2576C88.6279 37.5011 88.6067 37.7479 88.6107 37.995V41.6147C88.5854 41.964 88.6564 42.3134 88.8173 42.6312C88.8974 42.7387 89.0086 42.824 89.1385 42.8775C89.2685 42.9311 89.4122 42.9508 89.5538 42.9346C89.76 42.9501 89.9646 42.8912 90.1236 42.7708C90.2547 42.6523 90.3391 42.4976 90.3635 42.3308C90.4011 42.0907 90.4178 41.8482 90.4135 41.6056V40.8714H92.023V41.5419C92.0682 42.2056 91.8727 42.8644 91.4665 43.4171C91.0966 43.86 90.4668 44.0815 89.5405 44.0815C88.6141 44.0815 87.9143 43.8449 87.5178 43.3533Z" fill="#AFB1B8"/>
<path d="M94.2192 43.3837C93.8126 42.9194 93.6094 42.2428 93.6094 41.3477V38.2104C93.6094 37.3244 93.8126 36.6538 94.2192 36.1987C94.6257 35.7436 95.3055 35.517 96.2585 35.5191C97.2048 35.5191 97.8813 35.7456 98.2878 36.1987C98.6943 36.6538 98.9009 37.3244 98.9009 38.2104V41.3477C98.9009 42.2337 98.6943 42.9134 98.2811 43.3806C97.8679 43.8479 97.1948 44.0815 96.2585 44.0815C95.3221 44.0815 94.629 43.8449 94.2192 43.3837ZM97.0082 42.6312C97.1538 42.3404 97.2201 42.0219 97.2015 41.7027V37.8615C97.2202 37.5485 97.155 37.2361 97.0116 36.9512C96.9299 36.8414 96.816 36.7547 96.6828 36.7011C96.5497 36.6474 96.4026 36.629 96.2585 36.6478C96.1139 36.6294 95.9666 36.6481 95.833 36.7017C95.6994 36.7553 95.5848 36.8417 95.5021 36.9512C95.3555 37.2353 95.2891 37.5481 95.3088 37.8615V41.7209C95.2886 42.0402 95.3549 42.3591 95.5021 42.6494C95.5959 42.7473 95.7117 42.8257 95.8416 42.8795C95.9714 42.9332 96.1125 42.961 96.2552 42.961C96.3978 42.961 96.5389 42.9332 96.6688 42.8795C96.7986 42.8257 96.9144 42.7473 97.0082 42.6494V42.6312Z" fill="#AFB1B8"/>
<path d="M100.837 35.6106H102.57L103.872 41.3992L105.205 35.6106H106.892L107.061 43.9658H105.815L105.682 38.159L104.396 43.9658H103.396L102.063 38.1378L101.94 43.9658H100.68L100.837 35.6106Z" fill="#AFB1B8"/>
<path d="M109.005 35.6106H111.704C113.259 35.6106 114.036 36.4014 114.036 37.9831C114.036 39.498 113.218 40.2544 111.58 40.2524H110.661V43.9658H108.995L109.005 35.6106ZM111.311 39.1814C111.475 39.2005 111.642 39.1867 111.801 39.1411C111.959 39.0956 112.104 39.0193 112.227 38.9175C112.418 38.6353 112.502 38.3039 112.467 37.974C112.476 37.7191 112.449 37.4642 112.387 37.2155C112.363 37.1324 112.321 37.0545 112.264 36.9863C112.207 36.918 112.135 36.8608 112.054 36.8181C111.822 36.7171 111.567 36.6711 111.311 36.6846H110.664V39.1814H111.311Z" fill="#AFB1B8"/>
<path d="M116.439 35.6106H118.228L120.064 43.9658H118.511L118.148 42.0393H116.552L116.179 43.9658H114.603L116.439 35.6106ZM117.968 41.0715L117.345 37.5644L116.722 41.0715H117.968Z" fill="#AFB1B8"/>
<path d="M121.547 35.6106H122.713L124.946 40.3768V35.6106H126.329V43.9658H125.219L122.973 38.9903V43.9658H121.543L121.547 35.6106Z" fill="#AFB1B8"/>
<path d="M129.568 40.7801L127.712 35.6223H129.275L130.408 38.9354L131.471 35.6223H133L131.167 40.7801V43.9658H129.568V40.7801Z" fill="#AFB1B8"/>
<path d="M90.0905 47.6189V48.0558H88.731V51.4509H88.1612V48.0558H86.7949V47.6189H90.0905Z" fill="#AFB1B8"/>
<path d="M94.353 51.4512H93.9131C93.8685 51.4537 93.8244 51.4407 93.7899 51.4148C93.7566 51.3925 93.7311 51.362 93.7165 51.3268L93.3233 50.4166H91.4373L91.044 51.3268C91.0329 51.3649 91.0124 51.4001 90.9841 51.43C90.9492 51.4554 90.9054 51.4683 90.8608 51.4664H90.4209L92.087 47.6345H92.6669L94.353 51.4512ZM91.5939 50.0283H93.1667L92.5003 48.4688C92.4511 48.3509 92.4099 48.2303 92.377 48.1078C92.3536 48.1806 92.3336 48.2504 92.3136 48.3111L92.2537 48.4719L91.5939 50.0283Z" fill="#AFB1B8"/>
<path d="M97.2252 51.0748C97.3295 51.0798 97.4341 51.0798 97.5384 51.0748C97.6285 51.0664 97.7177 51.0512 97.805 51.0293C97.8866 51.0111 97.9668 50.9878 98.0449 50.9595C98.1182 50.9322 98.1915 50.8988 98.2682 50.8655V50.0037H97.6017C97.5852 50.0046 97.5687 50.0023 97.5533 49.9971C97.5378 49.9919 97.5236 49.9838 97.5118 49.9734C97.5008 49.9648 97.4921 49.954 97.4864 49.9419C97.4806 49.9299 97.4779 49.9167 97.4784 49.9036V49.6093H98.7713V51.0779C98.6658 51.1466 98.5544 51.2075 98.4381 51.2599C98.3193 51.3133 98.1955 51.357 98.0682 51.3904C97.932 51.4269 97.7927 51.4533 97.6517 51.4693C97.4902 51.4856 97.3277 51.4937 97.1652 51.4936C96.8778 51.4958 96.5927 51.4473 96.3255 51.351C96.076 51.2596 95.8493 51.1234 95.659 50.9504C95.4735 50.7757 95.3275 50.5695 95.2292 50.3436C95.1241 50.0896 95.0721 49.8199 95.0759 49.5486C95.0724 49.2755 95.1232 49.0041 95.2258 48.7475C95.3217 48.5204 95.468 48.3138 95.6557 48.1406C95.8458 47.9682 96.0726 47.833 96.3221 47.7431C96.6075 47.6454 96.9103 47.597 97.2152 47.6005C97.3703 47.6003 97.5252 47.6115 97.6784 47.6339C97.8138 47.654 97.9467 47.6865 98.0749 47.731C98.1915 47.7709 98.3032 47.8217 98.4081 47.8827C98.5103 47.9426 98.6072 48.0095 98.698 48.083L98.5381 48.3197C98.5256 48.3413 98.5069 48.3594 98.484 48.3722C98.4612 48.3851 98.435 48.392 98.4081 48.3925C98.3713 48.3914 98.3355 48.3809 98.3048 48.3621C98.2548 48.3379 98.2015 48.3075 98.1415 48.2711C98.0707 48.2307 97.996 48.1961 97.9183 48.1679C97.819 48.1317 97.7164 48.1032 97.6117 48.083C97.4721 48.0596 97.3304 48.0484 97.1885 48.0496C96.9687 48.0474 96.7504 48.0834 96.5454 48.1558C96.36 48.2235 96.1928 48.3271 96.0556 48.4592C95.9175 48.597 95.812 48.7592 95.7457 48.9356C95.5968 49.3507 95.5968 49.7981 95.7457 50.2131C95.8186 50.3933 95.9321 50.5576 96.0789 50.6955C96.2155 50.827 96.3814 50.9304 96.5654 50.999C96.7773 51.0652 97.0019 51.091 97.2252 51.0748V51.0748Z" fill="#AFB1B8"/>
<path d="M102.536 51.014H104.356V51.4509H101.98V47.6189H102.55L102.536 51.014Z" fill="#AFB1B8"/>
<path d="M106.249 51.4509H105.679V47.6189H106.249V51.4509Z" fill="#AFB1B8"/>
<path d="M108.368 47.6371C108.402 47.6547 108.432 47.6785 108.455 47.7069L110.891 50.5955C110.888 50.5501 110.888 50.5045 110.891 50.459C110.891 50.4165 110.891 50.374 110.891 50.3346V47.6038H111.387V51.4512H111.101C111.058 51.4543 111.016 51.447 110.977 51.43C110.943 51.4109 110.912 51.3862 110.888 51.3571L108.455 48.4716C108.455 48.5171 108.455 48.5595 108.455 48.602C108.455 48.6445 108.455 48.684 108.455 48.7204V51.4512H107.979V47.6189H108.275C108.307 47.619 108.339 47.6252 108.368 47.6371V47.6371Z" fill="#AFB1B8"/>
<path d="M115.582 47.6189V48.0406H113.563V49.3059H115.199V49.7124H113.563V51.0202H115.582V51.4419H112.977V47.6189H115.582Z" fill="#AFB1B8"/>
<path d="M55.8718 23.9539L81.1736 30.4953V53.4173L55.8718 46.879V23.9539ZM54.249 22V47.9925L82.7931 55.3743V29.3848L54.249 22Z" fill="#AFB1B8"/>
<path d="M69.5474 67.4402L41 60.0522V34.0625L69.5474 41.4474V67.4402Z" fill="#AFB1B8"/>
<path d="M54.7222 23.6596L79.6941 30.1189L69.0742 39.7912L44.099 33.3288L54.7222 23.6596ZM54.249 22L41 34.0631L69.5474 41.4478L82.793 29.3847L54.249 22Z" fill="#AFB1B8"/>
<path d="M71.1538 65.978L82.7933 55.3774L71.1538 52.3647V65.978Z" fill="#AFB1B8"/>
</svg>
