<svg aria-hidden="true" style="position: absolute; width: 0; height: 0; overflow: hidden;" version="1.1" xmlns="http://www.w3.org/2000/svg" xmlns:xlink="http://www.w3.org/1999/xlink">
<defs>
<symbol id="icon-antenna" viewBox="0 0 32 32">
<path fill="#212121" style="fill: var(--color1, #212121)" d="M30.773 22.098l-8.443-8.505 0.937-4.616c0.225 0.090 0.485 0.144 0.758 0.146h0.007c0.008 0 0.017 0 0.026 0 1.192 0 2.159-0.967 2.159-2.159s-0.967-2.159-2.159-2.159c-1.192 0-2.159 0.967-2.159 2.159 0 0.259 0.046 0.508 0.13 0.739l-0.005-0.015-4.96 0.606-8.091-8.133c-0.096-0.098-0.229-0.159-0.376-0.16h-0c-0.14 0.001-0.274 0.057-0.373 0.155l-1.512 1.504c-0.096 0.097-0.156 0.23-0.156 0.377s0.060 0.281 0.156 0.377v0l0.814 0.825c-1.143 2.062-1.816 4.522-1.816 7.139 0 4.106 1.656 7.824 4.336 10.525l-0.001-0.001c0.043 0.041 0.092 0.074 0.146 0.097-0.032 0.164-0.051 0.353-0.052 0.546v6.188h-6.4c-1.472 0.001-2.666 1.194-2.667 2.666v1.067c0 0.295 0.239 0.534 0.534 0.534h24.534c0.294 0 0.533-0.239 0.533-0.534v-1.067c-0.002-1.472-1.195-2.665-2.666-2.666h-6.4v-2.742c1.003 0.21 2.024 0.317 3.049 0.32 2.58-0.003 5.005-0.663 7.117-1.822l-0.077 0.039 0.818 0.823c0.099 0.101 0.235 0.159 0.376 0.16 0.14-0.001 0.274-0.057 0.373-0.155l1.512-1.504c0.096-0.097 0.156-0.23 0.156-0.377s-0.060-0.281-0.156-0.377v0zM23.28 6.233c0.193-0.192 0.459-0.31 0.752-0.31 0.589 0 1.067 0.478 1.067 1.066s-0.477 1.066-1.067 1.066c-0 0-0 0-0 0h-0.004c-0.587-0.003-1.061-0.479-1.061-1.066 0-0.295 0.12-0.563 0.314-0.756l0-0h-0.002zM22.024 9.737l-0.598 2.946-1.175-1.183 1.774-1.763zM21.419 8.835l-1.92 1.909-1.486-1.493 3.406-0.416zM24.004 28.8c0.884 0 1.6 0.716 1.6 1.6v0 0.534h-23.466v-0.534c0-0.884 0.716-1.6 1.6-1.6v0h20.267zM16.538 26.666v1.067h-5.334v-1.067h5.334zM11.204 25.6v-4.053c0-1.294 1.196-2.346 2.667-2.346s2.667 1.053 2.667 2.346v4.053h-5.334zM17.604 23.904v-2.357c0-1.882-1.675-3.413-3.733-3.413-0.017-0-0.038-0-0.058-0-1.353 0-2.54 0.707-3.213 1.771l-0.009 0.016c-2.36-2.482-3.812-5.846-3.812-9.55 0-2.314 0.567-4.496 1.569-6.414l-0.036 0.077 18.602 18.709c-1.823 0.947-3.979 1.502-6.266 1.502-1.079 0-2.128-0.124-3.136-0.357l0.093 0.018zM28.893 23.22l-21.057-21.181 0.754-0.752 7.935 7.98c0.004 0 0.006 0.007 0.010 0.010l13.114 13.191-0.757 0.752z"></path>
<path fill="#2196f3" style="fill: var(--color2, #2196f3)" d="M13.876 20.267h-0.005c-0.001 0-0.002 0-0.002 0-0.884 0-1.6 0.716-1.6 1.6s0.715 1.599 1.597 1.6h0.005c0.001 0 0.001 0 0.002 0 0.884 0 1.6-0.716 1.6-1.6s-0.715-1.599-1.598-1.6h-0zM14.249 22.245c-0.096 0.096-0.229 0.155-0.376 0.155-0.295 0-0.534-0.239-0.534-0.534s0.238-0.533 0.532-0.533h0c0.293 0.001 0.531 0.239 0.531 0.533 0 0.148-0.060 0.282-0.157 0.378l-0 0h0.005z"></path>
</symbol>
<symbol id="icon-astronaut" viewBox="0 0 32 32">
<path fill="#2196f3" style="fill: var(--color2, #2196f3)" d="M31.974 4.524c-0.064-0.191-0.227-0.332-0.427-0.362l-0.003-0-1.91-0.278-0.855-1.731c-0.179-0.365-0.777-0.365-0.956 0l-0.855 1.731-1.911 0.278c-0.26 0.039-0.457 0.26-0.457 0.528 0 0.15 0.062 0.285 0.161 0.382l1.383 1.348-0.326 1.903c-0.034 0.2 0.048 0.402 0.212 0.522 0.166 0.12 0.382 0.135 0.562 0.040l1.708-0.899 1.709 0.899c0.072 0.038 0.157 0.061 0.247 0.061 0.295 0 0.534-0.239 0.534-0.534 0-0.031-0.003-0.062-0.008-0.092l0 0.003-0.326-1.903 1.383-1.348c0.099-0.097 0.16-0.232 0.16-0.382 0-0.059-0.010-0.116-0.027-0.169l0.001 0.004zM29.511 5.851c-0.125 0.122-0.183 0.299-0.153 0.472l0.191 1.114-1.001-0.526c-0.072-0.039-0.158-0.062-0.248-0.062s-0.176 0.023-0.251 0.063l0.003-0.001-1.001 0.526 0.192-1.114c0.005-0.027 0.008-0.058 0.008-0.090 0-0.15-0.062-0.285-0.161-0.382l-0.811-0.789 1.119-0.163c0.174-0.025 0.324-0.134 0.402-0.292l0.5-1.013 0.501 1.013c0.078 0.158 0.228 0.267 0.402 0.292l1.119 0.162-0.809 0.79zM26.134 20.522h-1.067v1.067h1.067v-1.067zM26.134 22.656h-1.067v1.066h1.067v-1.066zM27.2 21.589h-1.067v1.067h1.067v-1.067z"></path>
<path fill="#2196f3" style="fill: var(--color2, #2196f3)" d="M25.067 21.589h-1.067v1.067h1.067v-1.067zM22.4 26.389h-1.067v1.067h1.067v-1.067zM22.4 28.523h-1.067v1.067h1.067v-1.067zM23.466 27.456h-1.067v1.067h1.067v-1.067zM21.334 27.456h-1.067v1.067h1.067v-1.067zM16 24.256h-1.067v1.067h1.067v-1.067zM16 26.389h-1.067v1.067h1.067v-1.067zM17.067 25.322h-1.067v1.067h1.067v-1.067zM14.933 25.322h-1.066v1.067h1.066v-1.067zM5.867 6.122h-1.067v1.066h1.067v-1.066zM5.867 8.256h-1.067v1.066h1.067v-1.066zM6.933 7.189h-1.067v1.067h1.066v-1.067zM4.8 7.189h-1.067v1.067h1.067v-1.067z"></path>
<path fill="#212121" style="fill: var(--color1, #212121)" d="M24.715 14.16c-0.28-0.376-0.698-0.636-1.179-0.703l-0.009-0.001c-0.076-0.012-0.164-0.018-0.254-0.018-0.411 0-0.789 0.139-1.090 0.373l0.004-0.003-1.253 0.96-1.898 1.417-1.358-0.541c2.421-1.086 4.113-3.508 4.113-6.32 0-3.823-3.122-6.934-6.961-6.934s-6.961 3.11-6.961 6.934c0 1.386 0.415 2.674 1.12 3.759l-2.768-0.024c-0.009 0-0.016 0.005-0.023 0.005-0.057 0.003-0.11 0.014-0.159 0.033l0.004-0.001c-0.013 0.005-0.026 0.007-0.038 0.013-0.006 0.003-0.013 0.003-0.019 0.006l-3.233 1.596c-0 0-0.001 0-0.001 0.001l-1.893 0.91c-0.024 0.011-0.045 0.023-0.064 0.036l0.001-0.001c-0.482 0.324-0.795 0.867-0.795 1.483 0 0.297 0.073 0.577 0.201 0.823l-0.005-0.010c0.22 0.424 0.592 0.742 1.043 0.885l0.013 0.003c0.161 0.053 0.345 0.083 0.537 0.083 0.308 0 0.598-0.078 0.851-0.216l-0.009 0.005 1.388-0.738 2.264-1.169 1.357-0.008-5.442 5.415c0 0.001-0.001 0.001-0.001 0.001l-1.339 1.333c-0.303 0.299-0.49 0.714-0.49 1.173 0 0.002 0 0.004 0 0.005v-0c0 0.444 0.174 0.863 0.49 1.178 0.301 0.3 0.717 0.485 1.176 0.485 0.001 0 0.002 0 0.004 0h-0c0.428 0 0.854-0.162 1.18-0.485l1.314-1.309 1.741-1.3 0.901 0.897-3.102 3.088c-0.303 0.299-0.491 0.715-0.491 1.174 0 0.001 0 0.003 0 0.004v-0c0 0.445 0.174 0.864 0.49 1.179 0.302 0.3 0.717 0.485 1.176 0.485 0.001 0 0.002 0 0.003 0h-0c0.427 0 0.855-0.162 1.18-0.485l4.488-4.472c0.007-0.006 0.016-0.009 0.022-0.016l5.166-5.658 3.471 0.494c0.025 0.004 0.050 0.006 0.075 0.006 0.065 0 0.127-0.016 0.187-0.038 0.018-0.006 0.033-0.015 0.050-0.023 0.019-0.010 0.039-0.015 0.058-0.027l3.213-2.133c0.012-0.008 0.018-0.021 0.029-0.030 0.013-0.010 0.029-0.014 0.041-0.026l1.271-1.191c0.348-0.326 0.564-0.787 0.564-1.3 0-0.4-0.132-0.769-0.355-1.066l0.003 0.005zM2.13 17.77c-0.098 0.054-0.215 0.086-0.34 0.086-0.078 0-0.153-0.013-0.224-0.036l0.005 0.001c-0.294-0.093-0.504-0.364-0.504-0.683 0-0.236 0.114-0.445 0.29-0.575l0.002-0.001 1.314-0.632 0.316 0.924 0.133 0.389-0.992 0.527zM5.627 15.942l-1.548 0.8-0.255-0.746-0.184-0.537 2.027-1.001-0.040 1.484zM20.727 9.322c0 0.918-0.219 1.785-0.599 2.56l-4.181-1.899c-0.044-0.575-0.342-1.072-0.782-1.384l-0.006-0.004 1.463-4.861c2.378 0.756 4.105 2.974 4.105 5.588zM8.938 9.322c0-3.235 2.644-5.867 5.894-5.867 0.253 0 0.5 0.022 0.745 0.053l-1.432 4.753c-0.019 0-0.037-0.006-0.057-0.006-0 0-0.001 0-0.001 0-1.032 0-1.869 0.835-1.872 1.867v0c0.003 1.031 0.84 1.867 1.872 1.867 0 0 0.001 0 0.001 0h-0c0.695 0 1.295-0.383 1.618-0.944l3.863 1.755c-1.075 1.446-2.795 2.389-4.737 2.389-3.25 0-5.894-2.632-5.894-5.867zM14.895 10.122c0 0.441-0.362 0.8-0.806 0.8-0 0-0.001 0-0.001 0-0.443 0-0.802-0.358-0.804-0.8v-0c0-0.441 0.361-0.8 0.806-0.8s0.806 0.359 0.806 0.8zM2.464 25.146c-0.11 0.109-0.261 0.176-0.428 0.176s-0.317-0.067-0.427-0.175l0 0c-0.109-0.108-0.176-0.257-0.176-0.422s0.067-0.314 0.176-0.422l0-0 0.962-0.959 0.852 0.848-0.959 0.955zM5.678 28.88c-0.11 0.109-0.261 0.176-0.428 0.176s-0.317-0.067-0.427-0.175l0 0c-0.109-0.108-0.176-0.257-0.176-0.422s0.067-0.314 0.176-0.422l0-0 0.963-0.959 0.852 0.848-0.96 0.955zM9.16 25.411l-0.001 0.001-1.765 1.76-0.852-0.848 1.765-1.757c0.040-0.040 0.065-0.088 0.090-0.136 0.007-0.014 0.020-0.026 0.026-0.040 0.016-0.041 0.019-0.085 0.026-0.128 0.003-0.025 0.014-0.048 0.014-0.073 0-0.035-0.013-0.070-0.020-0.105-0.006-0.032-0.006-0.064-0.019-0.096-0.025-0.053-0.055-0.098-0.092-0.138l0 0c-0.010-0.012-0.014-0.027-0.025-0.038h-0.001s0-0.001-0.001-0.002l-1.607-1.6c-0.017-0.017-0.039-0.024-0.058-0.038-0.025-0.021-0.054-0.040-0.084-0.057l-0.003-0.001c-0.027-0.013-0.058-0.024-0.090-0.031l-0.003-0.001c-0.030-0.009-0.065-0.017-0.101-0.020l-0.002-0c-0.007-0-0.015-0.001-0.023-0.001-0.026 0-0.051 0.002-0.075 0.005l0.003-0c-0.036 0.005-0.069 0.009-0.104 0.021-0.036 0.013-0.068 0.028-0.097 0.046l0.002-0.001c-0.020 0.011-0.042 0.015-0.061 0.029l-1.773 1.324-0.901-0.897 2.399-2.386 4.361 4.289-0.928 0.919zM15.979 18.394c-0.015-0.002-0.030 0.004-0.045 0.003-0.008-0-0.017-0.001-0.027-0.001-0.031 0-0.062 0.003-0.092 0.008l0.003-0c-0.070 0.011-0.132 0.035-0.187 0.070l0.002-0.001c-0.030 0.018-0.057 0.037-0.083 0.061-0.013 0.011-0.028 0.016-0.040 0.029l-4.698 5.146-4.328-4.256 2.833-2.818c0.096-0.097 0.156-0.23 0.156-0.377 0-0.295-0.239-0.534-0.534-0.534-0.001 0-0.001 0-0.002 0h0l-2.219 0.013 0.028-1.607 3.104 0.027c1.264 1.297 3.027 2.101 4.978 2.101 0.001 0 0.002 0 0.003 0h-0c0.438 0 0.864-0.046 1.28-0.122 0.040 0.032 0.080 0.064 0.129 0.085l2.41 0.96 0.152 0.759 0.178 0.885-3.003-0.427zM20.020 18.572l-0.313-1.558 1.446-1.080 0.946 1.257-2.080 1.381zM23.774 15.741l-0.838 0.785-0.931-1.237 0.831-0.637c0.155-0.119 0.351-0.168 0.543-0.143 0.193 0.027 0.364 0.128 0.48 0.284 0.088 0.117 0.141 0.265 0.141 0.426 0 0.206-0.087 0.391-0.226 0.521l-0 0z"></path>
<path fill="#212121" style="fill: var(--color1, #212121)" d="M13.602 18.544l-2.143-2.134c-0.096-0.096-0.229-0.156-0.376-0.156s-0.28 0.059-0.376 0.156v0l-2.143 2.134c-0.097 0.097-0.156 0.23-0.156 0.378s0.060 0.281 0.156 0.378l-0-0 2.143 2.134c0.096 0.096 0.229 0.156 0.376 0.156s0.28-0.059 0.376-0.156v0l2.143-2.134c0.097-0.097 0.157-0.23 0.157-0.378s-0.060-0.281-0.157-0.378l-0-0zM11.083 20.303l-1.387-1.381 1.386-1.381 1.387 1.381-1.387 1.381zM17.164 5.071l-0.258 1.036c0.071 0.018 1.738 0.452 1.738 2.149h1.067c0-2.017-1.666-2.965-2.547-3.184zM19.711 9.322h-1.067v1.066h1.067v-1.066z"></path>
</symbol>
<symbol id="icon-clock" viewBox="0 0 32 32">
<path fill="#212121" style="fill: var(--color1, #212121)" d="M31.296 15.301c-0.001-8.452-6.855-15.303-15.308-15.301s-15.303 6.855-15.301 15.308c0.002 6.788 4.422 12.543 10.541 14.545l0.108 0.031c0.061 0.019 0.123 0.029 0.187 0.029 0.12 0 0.238-0.032 0.342-0.094 0.135-0.080 0.236-0.207 0.283-0.357l3.865-12.25c1.054-0.004 1.906-0.859 1.906-1.913 0-1.056-0.856-1.913-1.913-1.913-0.303 0-0.59 0.071-0.845 0.196l0.011-0.005-5.106-5.107c-0.114-0.11-0.271-0.179-0.443-0.179-0.352 0-0.638 0.286-0.638 0.638 0 0.172 0.068 0.328 0.179 0.443l-0-0 5.103 5.109c-0.121 0.241-0.191 0.525-0.191 0.826 0 0.602 0.283 1.137 0.723 1.48l0.004 0.003-3.682 11.673c-7.278-2.681-11.004-10.754-8.324-18.032s10.754-11.004 18.032-8.323c7.278 2.681 11.004 10.754 8.323 18.032-1.345 3.581-4.003 6.406-7.374 7.938l-0.088 0.036-0.398-1.874c-0.063-0.291-0.318-0.506-0.624-0.506-0.164 0-0.313 0.062-0.426 0.163l0.001-0.001-3.837 3.426c-0.132 0.117-0.214 0.287-0.214 0.477 0 0.283 0.185 0.524 0.441 0.606l0.005 0.001 4.899 1.563c0.058 0.020 0.126 0.031 0.196 0.031 0.352 0 0.637-0.285 0.637-0.637 0-0.047-0.005-0.093-0.015-0.138l0.001 0.004-0.391-1.839c5.528-2.374 9.329-7.772 9.329-14.057 0-0.011 0-0.023-0-0.034v0.002zM15.992 14.664c0.352 0 0.638 0.286 0.638 0.638s-0.285 0.638-0.638 0.638v0c-0.352 0-0.638-0.286-0.638-0.638s0.286-0.638 0.638-0.638v0zM18.092 29.528l2.184-1.948 0.603 2.84-2.787-0.892z"></path>
<path fill="#2196f3" style="fill: var(--color2, #2196f3)" d="M15.354 3.185v1.275c0 0.352 0.286 0.638 0.638 0.638s0.638-0.285 0.638-0.638v0-1.275c0-0.352-0.285-0.638-0.638-0.638s-0.638 0.285-0.638 0.638v0zM3.876 14.664c-0.352 0-0.638 0.286-0.638 0.638s0.285 0.638 0.638 0.638h1.275c0.352 0 0.638-0.286 0.638-0.638s-0.285-0.638-0.638-0.638h-1.275zM28.108 15.939c0.352 0 0.638-0.286 0.638-0.638s-0.285-0.638-0.638-0.638h-1.275c-0.352 0-0.638 0.286-0.638 0.638s0.285 0.638 0.638 0.638h1.275z"></path>
</symbol>
<symbol id="icon-diagram" viewBox="0 0 32 32">
<path fill="#2196f3" style="fill: var(--color2, #2196f3)" d="M14.926 14.965h1.066v4.798h-1.066v-4.798zM19.19 17.097h1.066v2.665h-1.066v-2.665zM10.661 18.696h1.066v1.066h-1.066v-1.066zM7.463 18.163h1.066v1.599h-1.066v-1.599z"></path>
<path fill="#212121" style="fill: var(--color1, #212121)" d="M1.599 28.291h25.586c0 0 0 0 0 0 0.883 0 1.599-0.716 1.599-1.599v0-2.132c0-0.883-0.716-1.599-1.599-1.599v0h-0.533v-13.294l3.028-2.868c0.207 0.104 0.452 0.166 0.711 0.166 0.888 0 1.608-0.72 1.608-1.608s-0.72-1.608-1.608-1.608c-0.888 0-1.608 0.72-1.608 1.608 0 0.247 0.056 0.481 0.155 0.69l-0.004-0.010-2.281 2.162v-1.23c0-0.883-0.716-1.599-1.599-1.599v0h-21.323c-0.883 0-1.599 0.716-1.599 1.599v0 15.992h-0.533c-0.883 0-1.599 0.716-1.599 1.599v0 2.132c0 0.883 0.716 1.599 1.599 1.599v0zM30.384 4.837c0.294 0 0.533 0.239 0.533 0.533s-0.239 0.533-0.533 0.533v0c-0.294 0-0.533-0.239-0.533-0.533s0.239-0.533 0.533-0.533v0zM3.198 6.969c0-0.294 0.239-0.533 0.533-0.533h21.323c0.294 0 0.533 0.239 0.533 0.533v2.239l-1.066 1.013v-2.185c0-0.295-0.239-0.534-0.534-0.534h-19.189c-0.294 0-0.534 0.239-0.534 0.533v13.327c0 0.294 0.239 0.533 0.534 0.533h19.189c0.295 0 0.534-0.239 0.534-0.533v-9.675l1.066-1.010v12.283h-22.389v-15.991zM7.996 13.899c-0.001 0-0.003 0-0.005 0-0.883 0-1.599 0.716-1.599 1.599s0.716 1.599 1.599 1.599c0.432 0 0.824-0.172 1.112-0.45l-0 0 1.853 0.93c0.215 0.107 0.476 0.057 0.636-0.122l3.939-4.432 3.872 2.902c0.208 0.155 0.498 0.139 0.686-0.039l3.365-3.188v8.131h-18.123v-12.261h18.123v2.661l-3.771 3.572-3.904-2.927c-0.088-0.067-0.2-0.107-0.32-0.107-0.158 0-0.3 0.069-0.398 0.178l-0 0.001-3.993 4.493-1.493-0.746c0.011-0.064 0.017-0.128 0.020-0.193 0-0.883-0.716-1.599-1.599-1.599v0zM8.529 15.498c0 0.294-0.239 0.533-0.533 0.533s-0.533-0.239-0.533-0.533v0c0-0.294 0.239-0.533 0.533-0.533s0.533 0.239 0.533 0.533v0zM11.727 24.026h5.33v0.533c0 0.294-0.238 0.533-0.533 0.533h-4.265c-0.294 0-0.533-0.239-0.533-0.533v0-0.533zM1.067 24.56c0-0.294 0.238-0.533 0.533-0.533h9.062v0.533c0 0.883 0.716 1.599 1.599 1.599v0h4.265c0.883 0 1.599-0.716 1.599-1.599v0-0.533h9.062c0.294 0 0.533 0.239 0.533 0.533v2.132c0 0.294-0.239 0.533-0.533 0.533h-25.586c-0 0-0 0-0 0-0.294 0-0.533-0.239-0.533-0.533 0 0 0 0 0 0v0-2.132z"></path>
</symbol>
<symbol id="icon-client1-logo" viewBox="0 0 32 32">
<path fill="#afb1b8" style="fill: var(--color3, #afb1b8)" d="M12.988 11.294l1.376 1.302h3.837v3.633l1.376 1.302v-6.237h-6.588z"></path>
<path fill="#afb1b8" style="fill: var(--color3, #afb1b8)" d="M11.859 12.542v6.059h6.4v-2.408l-3.854-3.649-2.546-0.002zM17.040 17.714h-4.168v-4.075h0.295v3.799h3.873v0.276zM13.702 19.724l0.154-0.317h0.129l-0.225 0.423v0.246h-0.117v-0.246l-0.225-0.423h0.129l0.154 0.317zM14.363 19.92h-0.259l-0.054 0.156h-0.121l0.253-0.669h0.104l0.253 0.669h-0.121l-0.055-0.156zM14.136 19.826h0.194l-0.097-0.278-0.097 0.278zM14.821 19.895c0-0.031 0.008-0.059 0.025-0.085s0.050-0.057 0.1-0.092c-0.020-0.024-0.039-0.052-0.053-0.081l-0.001-0.002c-0.009-0.020-0.015-0.042-0.015-0.067v-0c0-0.053 0.016-0.094 0.048-0.124s0.075-0.046 0.129-0.046c0.049 0 0.088 0.015 0.12 0.043s0.047 0.064 0.047 0.106c0 0 0 0 0 0.001 0 0.028-0.008 0.055-0.022 0.077l0-0.001c-0.019 0.028-0.042 0.051-0.069 0.069l-0.001 0.001-0.046 0.033 0.129 0.152c0.019-0.037 0.028-0.078 0.028-0.123h0.097c0 0.082-0.019 0.15-0.058 0.203l0.098 0.116h-0.13l-0.038-0.045c-0.045 0.034-0.102 0.054-0.164 0.054-0.002 0-0.005-0-0.007-0h0c-0.066 0-0.119-0.017-0.159-0.053-0.037-0.032-0.059-0.079-0.059-0.132 0-0.002 0-0.004 0-0.006v0zM15.042 19.996c0.038 0 0.073-0.013 0.106-0.038l-0.146-0.172-0.014 0.010c-0.037 0.028-0.055 0.060-0.055 0.096 0 0.031 0.010 0.056 0.030 0.075 0.020 0.018 0.046 0.029 0.075 0.029 0.002 0 0.004-0 0.006-0h-0zM14.981 19.565c0 0.026 0.016 0.058 0.047 0.097l0.051-0.035 0.014-0.012c0.017-0.015 0.028-0.038 0.028-0.062 0-0.001 0-0.002-0-0.002v0c0-0 0-0 0-0.001 0-0.017-0.008-0.033-0.020-0.044l-0-0c-0.012-0.012-0.029-0.019-0.048-0.019-0.001 0-0.002 0-0.003 0h0c-0.001-0-0.002-0-0.003-0-0.020 0-0.037 0.009-0.049 0.022l-0 0c-0.012 0.014-0.019 0.033-0.019 0.053 0 0.001 0 0.002 0 0.003v-0zM16.196 19.858c-0.007 0.071-0.033 0.127-0.079 0.167s-0.107 0.060-0.183 0.060c-0.053 0-0.1-0.013-0.141-0.038-0.041-0.026-0.073-0.063-0.093-0.107l-0.001-0.002c-0.022-0.047-0.034-0.102-0.034-0.16 0-0.001 0-0.002 0-0.002v0-0.063c0-0.063 0.011-0.119 0.034-0.167s0.055-0.085 0.096-0.111c0.042-0.026 0.090-0.039 0.145-0.039 0.074 0 0.133 0.020 0.178 0.060s0.071 0.097 0.078 0.17h-0.116c-0.006-0.048-0.020-0.083-0.042-0.104s-0.055-0.032-0.099-0.032c-0.050 0-0.089 0.018-0.117 0.056s-0.041 0.091-0.041 0.162v0.059c0 0.072 0.013 0.127 0.039 0.165s0.064 0.057 0.114 0.057c0.046 0 0.080-0.010 0.103-0.031s0.038-0.055 0.044-0.102h0.116zM16.835 19.759c0 0.066-0.011 0.123-0.034 0.173s-0.055 0.087-0.098 0.114c-0.042 0.026-0.090 0.040-0.145 0.040s-0.103-0.013-0.145-0.040c-0.043-0.028-0.077-0.066-0.098-0.112l-0.001-0.002c-0.022-0.048-0.035-0.104-0.035-0.163 0-0.002 0-0.004 0-0.007v0-0.038c0-0.065 0.011-0.123 0.034-0.173s0.056-0.088 0.098-0.114c0.042-0.027 0.091-0.040 0.145-0.040s0.103 0.013 0.145 0.040c0.042 0.026 0.075 0.064 0.098 0.113s0.035 0.106 0.035 0.172v0.037zM16.718 19.724c0-0.074-0.014-0.131-0.042-0.171-0.025-0.036-0.066-0.059-0.113-0.059-0.002 0-0.004 0-0.006 0h0c-0.002-0-0.003-0-0.005-0-0.047 0-0.088 0.023-0.113 0.059l-0 0c-0.028 0.039-0.043 0.095-0.043 0.167v0.039c0 0.073 0.014 0.13 0.043 0.171s0.069 0.060 0.119 0.060c0.052 0 0.091-0.020 0.119-0.059s0.042-0.096 0.042-0.172v-0.035z"></path>
</symbol>
<symbol id="icon-client2-logo" viewBox="0 0 32 32">
<path fill="#afb1b8" style="fill: var(--color3, #afb1b8)" d="M15.431 11.658h0.026c0.048 0 0.099 0.005 0.15 0.009 0.247 0.018 0.475 0.053 0.696 0.106l-0.029-0.006v-0.539c-0.226-0.057-0.456-0.093-0.688-0.11-0.077-0.006-0.174-0.011-0.271-0.013l-0.007-0h-0.080c-0.466 0.002-0.93 0.062-1.381 0.178-0.514 0.128-1.007 0.329-1.465 0.596v5.345c0.401-0.223 0.866-0.41 1.355-0.535l0.041-0.009c0.344-0.092 0.744-0.156 1.156-0.179l0.016-0.001h0.016c0.066-0.003 0.132-0.005 0.2-0.006v-0.548c-0.544 0.007-1.069 0.081-1.569 0.213l0.045-0.010c-0.184 0.048-0.362 0.1-0.53 0.157l-0.191 0.065v-4.168l0.081-0.039c0.578-0.281 1.253-0.463 1.965-0.504l0.014-0.001c0.003-0 0.006-0 0.009-0s0.006 0 0.009 0l-0-0c0.076-0.004 0.152-0.006 0.227-0.006h0.086c0.040 0.001 0.079 0.002 0.119 0.004z"></path>
<path fill="#afb1b8" style="fill: var(--color3, #afb1b8)" d="M16.774 12.223c-0.001 0-0.003 0-0.005 0-0.28 0-0.554-0.024-0.821-0.069l0.029 0.004c-0.111-0.019-0.195-0.036-0.278-0.056l0.029 0.006v5.284c0.343 0.085 0.695 0.126 1.048 0.123 0.492-0.002 0.967-0.067 1.42-0.187l-0.039 0.009c0.556-0.141 1.044-0.345 1.492-0.61l-0.026 0.014v-5.25c-0.401 0.223-0.866 0.409-1.355 0.535l-0.041 0.009c-0.474 0.122-0.962 0.184-1.452 0.186zM18.887 12.314l0.191-0.064v4.169l-0.081 0.039c-0.276 0.135-0.6 0.255-0.938 0.342l-0.036 0.008c-0.407 0.105-0.826 0.159-1.246 0.161-0.126 0-0.25-0.005-0.371-0.016l-0.13-0.011v-4.288l0.152 0.010c0.1 0.007 0.218 0.011 0.336 0.011 0.005 0 0.009 0 0.014-0h-0.001c0.563-0.002 1.108-0.076 1.627-0.213l-0.045 0.010c0.178-0.047 0.354-0.1 0.529-0.159zM12.751 19.052c-0.051-0.053-0.123-0.086-0.202-0.086-0.003 0-0.007 0-0.010 0h0.001c-0.001-0-0.003-0-0.004-0-0.043 0-0.083 0.008-0.12 0.024l0.002-0.001c-0.072 0.029-0.128 0.086-0.156 0.157l-0.001 0.002c-0.015 0.038-0.023 0.078-0.022 0.118v0.714c-0.002 0.050 0.008 0.1 0.028 0.146 0.017 0.037 0.041 0.069 0.072 0.096 0.028 0.024 0.062 0.041 0.098 0.051s0.071 0.015 0.107 0.015c0.040 0 0.079-0.008 0.115-0.025 0.107-0.048 0.181-0.153 0.181-0.276v0-0.080h-0.187v0.064c0 0.001 0 0.003 0 0.004 0 0.021-0.004 0.042-0.012 0.061l0-0.001c-0.006 0.016-0.016 0.029-0.027 0.040l-0 0c-0.021 0.017-0.049 0.027-0.078 0.027h-0c-0.003 0-0.007 0.001-0.011 0.001-0.031 0-0.059-0.015-0.076-0.039l-0-0c-0.016-0.025-0.025-0.056-0.025-0.088 0-0.003 0-0.005 0-0.008v0-0.666c-0.001-0.037 0.007-0.073 0.023-0.107 0.017-0.026 0.047-0.044 0.080-0.044 0.004 0 0.008 0 0.012 0.001l-0-0c0.001-0 0.002-0 0.004-0 0.033 0 0.062 0.016 0.080 0.040l0 0c0.019 0.025 0.031 0.057 0.031 0.092 0 0.001-0 0.003-0 0.004v-0 0.062h0.185v-0.073c0-0.001 0-0.002 0-0.003 0-0.044-0.008-0.086-0.024-0.124l0.001 0.002c-0.015-0.039-0.036-0.073-0.063-0.101l0 0zM13.86 19.044c-0.057-0.048-0.131-0.078-0.212-0.079h-0c-0.038 0-0.076 0.007-0.111 0.020-0.077 0.028-0.138 0.084-0.17 0.156l-0.001 0.002c-0.019 0.043-0.028 0.091-0.027 0.138v0.685c-0.001 0.048 0.008 0.096 0.027 0.14 0.017 0.037 0.042 0.069 0.072 0.096 0.028 0.026 0.062 0.047 0.098 0.060 0.033 0.013 0.071 0.020 0.111 0.020 0.082 0 0.156-0.030 0.213-0.080l-0 0c0.030-0.027 0.054-0.059 0.071-0.096 0.019-0.044 0.028-0.092 0.027-0.14v-0.685c0-0.002 0-0.004 0-0.006 0-0.048-0.010-0.093-0.028-0.134l0.001 0.002c-0.017-0.039-0.041-0.072-0.070-0.1l-0-0zM13.772 19.967c0 0.003 0 0.007 0 0.011 0 0.035-0.014 0.066-0.038 0.089l-0 0c-0.024 0.020-0.054 0.032-0.088 0.032s-0.064-0.012-0.088-0.032l0 0c-0.023-0.022-0.038-0.054-0.038-0.088 0-0.004 0-0.008 0.001-0.011l-0 0v-0.685c-0-0.003-0-0.007-0-0.010 0-0.035 0.014-0.066 0.037-0.089l0-0c0.024-0.020 0.054-0.032 0.088-0.032s0.064 0.012 0.088 0.032l-0-0c0.023 0.022 0.038 0.054 0.038 0.088 0 0.004-0 0.007-0.001 0.011l0-0v0.685zM15.316 20.273v-1.297h-0.18l-0.236 0.686h-0.003l-0.238-0.686h-0.178v1.297h0.185v-0.789h0.003l0.181 0.558h0.092l0.183-0.558h0.003v0.789h0.185zM16.369 19.067c-0.028-0.032-0.065-0.056-0.105-0.071-0.038-0.013-0.082-0.020-0.127-0.020-0.003 0-0.005 0-0.007 0h-0.275v1.297h0.185v-0.507h0.095c0.058 0.003 0.115-0.010 0.167-0.035 0.042-0.024 0.077-0.058 0.101-0.098l0.001-0.001c0.021-0.034 0.036-0.073 0.042-0.113s0.010-0.088 0.010-0.136c0-0.004-0-0.008-0-0.012v0.001c0.002-0.062-0.004-0.125-0.018-0.185-0.013-0.047-0.037-0.087-0.068-0.119l0 0zM16.273 19.462c-0.001 0.025-0.007 0.048-0.017 0.069l0-0.001c-0.011 0.020-0.027 0.036-0.047 0.045l-0.001 0c-0.023 0.011-0.049 0.017-0.078 0.017-0.003 0-0.007-0-0.010-0l0 0h-0.084v-0.441h0.095c0.003-0 0.006-0 0.009-0 0.027 0 0.053 0.006 0.076 0.017l-0.001-0c0.019 0.011 0.034 0.027 0.043 0.047l0 0.001c0.010 0.023 0.016 0.047 0.016 0.072v0.086c0 0.030 0.002 0.061 0 0.089h-0.002zM17.244 18.976h-0.151l-0.286 1.297h0.185l0.054-0.279h0.252l0.054 0.279h0.185l-0.293-1.297zM17.073 19.818l0.091-0.47h0.003l0.090 0.47h-0.185zM18.438 19.757h-0.003l-0.279-0.781h-0.177v1.297h0.185v-0.78h0.004l0.282 0.78h0.174v-1.297h-0.185v0.781zM19.567 18.976l-0.149 0.516h-0.004l-0.149-0.516h-0.196l0.254 0.749v0.548h0.185v-0.548l0.254-0.749h-0.196zM12.235 20.639h0.089v0.25h0.060v-0.25h0.088v-0.051h-0.238v0.051zM12.984 20.588l-0.117 0.301h0.064l0.025-0.069h0.12l0.026 0.069h0.066l-0.12-0.301h-0.064zM12.975 20.77l0.041-0.112 0.041 0.112h-0.082zM13.724 20.778h0.070v0.039c-0.019 0.016-0.044 0.025-0.072 0.025h-0c-0.001 0-0.003 0-0.004 0-0.024 0-0.046-0.011-0.060-0.029l-0-0c-0.014-0.020-0.022-0.045-0.022-0.072 0-0.002 0-0.005 0-0.007v0c0-0.067 0.029-0.101 0.087-0.101 0.002-0 0.004-0 0.007-0 0.030 0 0.055 0.020 0.062 0.048l0 0 0.059-0.011c-0.013-0.059-0.055-0.088-0.128-0.088-0.001-0-0.003-0-0.004-0-0.039 0-0.074 0.015-0.101 0.039l0-0c-0.027 0.027-0.044 0.064-0.044 0.105 0 0.004 0 0.008 0 0.012l-0-0c-0 0.002-0 0.005-0 0.007 0 0.040 0.015 0.078 0.039 0.106l-0-0c0.027 0.027 0.064 0.044 0.105 0.044 0.003 0 0.007-0 0.010-0l-0 0c0.002 0 0.003 0 0.005 0 0.047 0 0.090-0.018 0.123-0.048l-0 0v-0.119h-0.13v0.051zM14.479 20.588h-0.061v0.301h0.211v-0.051h-0.15v-0.25zM15.118 20.588h-0.061v0.301h0.061v-0.301zM15.743 20.789l-0.123-0.201h-0.059v0.301h0.056v-0.197l0.121 0.197h0.060v-0.301h-0.056v0.201zM16.308 20.756h0.15v-0.051h-0.15v-0.066h0.161v-0.051h-0.222v0.301h0.229v-0.051h-0.168v-0.081zM17.678 20.706h-0.119v-0.119h-0.060v0.301h0.060v-0.132h0.119v0.132h0.060v-0.301h-0.060v0.119zM18.246 20.756h0.151v-0.051h-0.151v-0.066h0.162v-0.051h-0.222v0.301h0.228v-0.051h-0.168v-0.081zM19.016 20.756c0.053-0.008 0.079-0.036 0.079-0.084 0-0.003 0.001-0.006 0.001-0.009 0-0.024-0.012-0.045-0.030-0.058l-0-0c-0.022-0.011-0.049-0.018-0.076-0.018-0.004 0-0.008 0-0.012 0l0.001-0h-0.128v0.301h0.060v-0.126h0.012c0.001-0 0.003-0 0.005-0 0.012 0 0.023 0.003 0.033 0.007l-0-0c0.009 0.005 0.016 0.013 0.021 0.022l0.066 0.096h0.072l-0.037-0.059c-0.017-0.029-0.039-0.054-0.066-0.072l-0.001-0zM18.955 20.715h-0.045v-0.075h0.048c0.004-0 0.008-0.001 0.013-0.001 0.017 0 0.034 0.003 0.050 0.008l-0.001-0c0.004 0.004 0.008 0.009 0.010 0.014l0 0c0.002 0.005 0.003 0.010 0.003 0.016 0 0 0 0.001-0 0.001v-0c-0.001 0.012-0.007 0.023-0.016 0.030l-0 0c-0.015 0.005-0.032 0.007-0.050 0.007-0.004 0-0.008-0-0.012-0l0.001 0zM19.597 20.756h0.15v-0.051h-0.15v-0.066h0.162v-0.051h-0.223v0.301h0.229v-0.051h-0.168v-0.081z"></path>
</symbol>
<symbol id="icon-client3-logo" viewBox="0 0 32 32">
<path fill="#afb1b8" style="fill: var(--color3, #afb1b8)" d="M13.43 19.914c0.006 0 0.011 0.003 0.015 0.006v0l0.039 0.041c-0.030 0.033-0.067 0.059-0.109 0.077-0.049 0.020-0.101 0.029-0.154 0.028-0.002 0-0.005 0-0.008 0-0.049 0-0.097-0.009-0.14-0.027l0.003 0.001c-0.084-0.034-0.149-0.1-0.179-0.183l-0.001-0.002c-0.016-0.041-0.024-0.089-0.024-0.139 0-0.002 0-0.004 0-0.006v0c-0-0.002-0-0.004-0-0.006 0-0.050 0.010-0.098 0.027-0.142l-0.001 0.003c0.017-0.042 0.043-0.080 0.075-0.112s0.072-0.057 0.116-0.073c0.048-0.018 0.098-0.026 0.149-0.026 0.048-0.001 0.095 0.007 0.139 0.024 0.038 0.016 0.073 0.038 0.104 0.065l-0.033 0.043c-0.002 0.003-0.005 0.006-0.008 0.008l-0 0c-0.003 0.002-0.007 0.003-0.011 0.003-0.001 0-0.001-0-0.002-0h0c-0.005-0-0.010-0.002-0.014-0.005l0 0-0.018-0.011-0.024-0.015c-0.022-0.012-0.048-0.021-0.075-0.026l-0.002-0c-0.016-0.003-0.034-0.005-0.053-0.005-0.002 0-0.003 0-0.005 0h0c-0.001-0-0.003-0-0.004-0-0.037 0-0.073 0.007-0.106 0.020l0.002-0.001c-0.033 0.013-0.061 0.031-0.084 0.055v0c-0.024 0.025-0.043 0.055-0.055 0.087-0.014 0.037-0.020 0.075-0.020 0.114s0.006 0.079 0.020 0.116c0.012 0.032 0.030 0.061 0.054 0.086 0.022 0.024 0.050 0.042 0.080 0.053s0.066 0.019 0.1 0.019c0.020 0 0.040-0.001 0.059-0.004 0.032-0.004 0.063-0.014 0.090-0.031 0.014-0.009 0.026-0.018 0.038-0.029 0.005-0.004 0.011-0.007 0.018-0.008h0zM14.548 19.71c0.001 0.049-0.008 0.098-0.026 0.144-0.017 0.044-0.042 0.081-0.073 0.111l-0 0c-0.032 0.031-0.070 0.056-0.112 0.072l-0.002 0.001c-0.044 0.016-0.094 0.026-0.147 0.026s-0.103-0.009-0.15-0.027l0.003 0.001c-0.044-0.017-0.082-0.042-0.114-0.073l0 0c-0.031-0.031-0.056-0.069-0.073-0.11l-0.001-0.002c-0.017-0.043-0.026-0.092-0.026-0.144s0.010-0.101 0.027-0.146l-0.001 0.003c0.016-0.042 0.041-0.080 0.073-0.113 0.032-0.030 0.070-0.054 0.112-0.070l0.002-0.001c0.044-0.017 0.094-0.026 0.147-0.026s0.103 0.010 0.15 0.027l-0.003-0.001c0.043 0.017 0.082 0.041 0.114 0.073s0.057 0.070 0.073 0.111c0.018 0.046 0.027 0.095 0.026 0.144zM14.447 19.71c0-0.002 0-0.004 0-0.006 0-0.039-0.007-0.077-0.019-0.111l0.001 0.002c-0.022-0.065-0.070-0.116-0.132-0.14l-0.002-0.001c-0.032-0.012-0.069-0.019-0.107-0.019s-0.075 0.007-0.109 0.020l0.002-0.001c-0.063 0.025-0.112 0.076-0.134 0.139l-0 0.002c-0.024 0.075-0.024 0.156 0 0.231 0.022 0.065 0.071 0.116 0.132 0.14l0.002 0.001c0.069 0.025 0.145 0.025 0.214 0 0.031-0.012 0.059-0.030 0.082-0.054 0.023-0.025 0.041-0.055 0.052-0.086 0.013-0.037 0.019-0.076 0.018-0.115zM15.311 19.831l0.010 0.026c0.004-0.009 0.007-0.017 0.011-0.026 0.004-0.010 0.009-0.019 0.013-0.027l-0.001 0.001 0.247-0.428c0.005-0.008 0.009-0.012 0.014-0.013s0.011-0.002 0.017-0.002c0.001 0 0.002 0 0.004 0h0.073v0.697h-0.087v-0.534c-0-0.004-0-0.008-0-0.012s0-0.008 0-0.013l-0 0.001-0.249 0.435c-0.003 0.007-0.008 0.012-0.014 0.016l-0 0c-0.006 0.004-0.013 0.006-0.021 0.006-0 0-0 0-0.001 0h-0.014c-0.008 0-0.015-0.002-0.021-0.006s-0.011-0.009-0.015-0.016l-0-0-0.256-0.437v0.56h-0.084v-0.696h0.073c0.001-0 0.002-0 0.004-0 0.006 0 0.012 0.001 0.017 0.002l-0-0c0.006 0.003 0.011 0.007 0.013 0.013l0 0 0.253 0.429c0.005 0.007 0.009 0.015 0.012 0.024l0 0.001zM16.242 19.797v0.261h-0.097v-0.696h0.216c0.002-0 0.005-0 0.008-0 0.040 0 0.079 0.006 0.115 0.016l-0.003-0.001c0.031 0.008 0.060 0.023 0.085 0.043 0.021 0.019 0.038 0.042 0.048 0.068 0.011 0.028 0.017 0.059 0.017 0.089s-0.006 0.061-0.018 0.089c-0.012 0.028-0.030 0.051-0.052 0.069l-0 0c-0.024 0.020-0.053 0.036-0.084 0.046l-0.002 0c-0.038 0.011-0.077 0.017-0.117 0.016l-0.117-0.002zM16.242 19.722h0.117c0.026 0 0.051-0.003 0.075-0.011 0.021-0.007 0.039-0.017 0.054-0.030l-0 0c0.014-0.012 0.025-0.028 0.033-0.045l0-0.001c0.007-0.017 0.012-0.036 0.012-0.057 0-0.001 0-0.001 0-0.002v0c0-0.002 0-0.005 0-0.007 0-0.018-0.004-0.035-0.010-0.050l0 0.001c-0.008-0.019-0.019-0.035-0.034-0.048l-0-0c-0.032-0.024-0.072-0.038-0.116-0.038-0.005 0-0.010 0-0.015 0.001l0.001-0h-0.117v0.287zM17.544 20.059h-0.076c-0 0-0.001 0-0.001 0-0.007 0-0.014-0.002-0.020-0.006l0 0c-0.005-0.004-0.010-0.010-0.012-0.016l-0-0-0.066-0.168h-0.331l-0.068 0.168c-0.003 0.006-0.007 0.012-0.012 0.016l-0 0c-0.006 0.004-0.013 0.007-0.021 0.007-0 0-0.001 0-0.001-0h-0.076l0.29-0.697h0.101l0.294 0.697zM17.064 19.8h0.273l-0.115-0.284c-0.008-0.018-0.015-0.040-0.021-0.062l-0.001-0.003-0.011 0.037c-0.004 0.012-0.007 0.022-0.011 0.032l0.001-0.002-0.114 0.283zM17.962 19.365c0.006 0.003 0.011 0.008 0.015 0.013l0.424 0.525v-0.541h0.087v0.697h-0.048c-0 0-0.001 0-0.001 0-0.007 0-0.013-0.002-0.019-0.004l0 0c-0.006-0.003-0.011-0.008-0.015-0.013l-0-0-0.423-0.525c0 0.008 0 0.016 0 0.024v0.518h-0.087v-0.697h0.051c0.006 0 0.012 0.001 0.017 0.003zM19.201 19.781v0.277h-0.097v-0.277l-0.268-0.42h0.087c0.001-0 0.001-0 0.002-0 0.007 0 0.014 0.002 0.019 0.006l-0-0c0.005 0.004 0.009 0.010 0.013 0.016l0 0 0.168 0.271c0.007 0.011 0.013 0.022 0.017 0.032s0.009 0.020 0.012 0.029l0.013-0.030c0.005-0.011 0.010-0.022 0.017-0.032l0.165-0.273c0.004-0.006 0.008-0.011 0.013-0.015l0-0c0.005-0.004 0.012-0.007 0.019-0.007 0.001 0 0.001 0 0.002 0h0.088l-0.268 0.422zM15.263 18.192c0.042 0.005 0.085 0.009 0.128 0.013 0.653-0.279 1.206-0.734 1.589-1.31s0.579-1.247 0.564-1.929l-0.72-0.686c0.048 0.226 0.075 0.486 0.075 0.752 0 0.51-0.1 0.996-0.282 1.44l0.009-0.025c-0.276 0.691-0.748 1.295-1.363 1.745z"></path>
<path fill="#afb1b8" style="fill: var(--color3, #afb1b8)" d="M15.006 18.16l0.019 0.004c0.658-0.448 1.159-1.074 1.44-1.797 0.159-0.396 0.251-0.854 0.251-1.334 0-0.328-0.043-0.646-0.123-0.948l0.006 0.026-1.025-0.977c0.321 0.606 0.509 1.325 0.509 2.088 0 0.178-0.010 0.353-0.030 0.525l0.002-0.021c-0.1 0.89-0.464 1.734-1.048 2.435zM18.484 15.771c-0.174 0.749-0.597 1.425-1.207 1.926-0.168 0.14-0.356 0.27-0.554 0.382l-0.019 0.010c0.516-0.146 0.962-0.393 1.337-0.721l-0.004 0.003c0.371-0.324 0.664-0.727 0.855-1.183l0.008-0.021-0.416-0.396z"></path>
<path fill="#afb1b8" style="fill: var(--color3, #afb1b8)" d="M18.321 15.661l-0.592-0.564c-0.013 0.678-0.219 1.306-0.564 1.834l0.008-0.013c-0.353 0.549-0.853 0.997-1.449 1.299h0.003c0.133 0 0.265-0.008 0.397-0.023 0.569-0.223 1.050-0.566 1.429-0.999l0.004-0.004c0.368-0.42 0.635-0.937 0.76-1.507l0.004-0.023zM15.092 12.721l-0.706-0.674c-0.632 0.232-1.175 0.641-1.558 1.173s-0.59 1.161-0.592 1.806c0.002 0.713 0.254 1.404 0.715 1.965s1.106 0.959 1.832 1.132c0.648-0.752 1.027-1.681 1.083-2.653s-0.215-1.934-0.774-2.749zM19.953 15.557c-0.002-0.846-0.356-1.656-0.984-2.254s-1.478-0.935-2.366-0.937c-0.41-0-0.817 0.072-1.199 0.213l4.325 4.12c0.141-0.337 0.224-0.73 0.224-1.141 0-0 0-0.001 0-0.001v0z"></path>
</symbol>
<symbol id="icon-client4-logo" viewBox="0 0 32 32">
<path fill="#2196f3" style="fill: var(--color2, #2196f3)" d="M10.805 14.462h-0c-0.426 0-0.771 0.337-0.771 0.751v0.001c0 0.415 0.345 0.751 0.771 0.751h0c0.426 0 0.771-0.337 0.771-0.751v-0.001c0-0.415-0.345-0.751-0.771-0.751zM16.496 14.222c-0.001-0.576-0.237-1.129-0.655-1.536s-0.985-0.637-1.576-0.639c-0.592 0.001-1.159 0.231-1.577 0.638s-0.654 0.96-0.655 1.537v3.179s4.463-0.484 4.464-3.178v-0.001zM8.471 18.444c0.002 0.42 0.176 0.798 0.456 1.069l0 0c0.283 0.275 0.67 0.444 1.097 0.445h0c0.426-0 0.813-0.17 1.097-0.445l-0 0c0.28-0.271 0.454-0.649 0.456-1.068v-2.212s-3.105 0.338-3.105 2.211zM10.024 18.84c-0 0-0 0-0.001 0-0.084 0-0.162-0.025-0.227-0.068l0.002 0.001c-0.066-0.043-0.118-0.104-0.149-0.175l-0.001-0.003c-0.020-0.045-0.031-0.097-0.031-0.152 0-0.027 0.003-0.054 0.008-0.080l-0 0.003c0.017-0.080 0.056-0.149 0.111-0.203l0-0c0.056-0.054 0.127-0.092 0.206-0.108l0.003-0c0.079-0.015 0.161-0.008 0.235 0.023s0.138 0.081 0.183 0.146c0.043 0.062 0.069 0.138 0.069 0.221 0 0.055-0.011 0.107-0.032 0.154l0.001-0.003c-0.020 0.048-0.050 0.092-0.088 0.129s-0.083 0.066-0.132 0.086c-0.046 0.019-0.1 0.030-0.156 0.030-0 0-0 0-0 0v0-0.002zM13.193 18.594h-0.318v0.328h-0.166v-0.803h0.523v0.134h-0.357v0.207h0.318v0.134zM13.989 18.539c0 0.079-0.014 0.148-0.042 0.208s-0.068 0.105-0.12 0.138c-0.049 0.031-0.109 0.049-0.173 0.049-0.002 0-0.004-0-0.007-0h0c-0.066 0-0.126-0.016-0.178-0.048-0.053-0.033-0.094-0.080-0.12-0.135l-0.001-0.002c-0.028-0.058-0.044-0.127-0.044-0.199 0-0.002 0-0.005 0-0.007v0-0.040c0-0.079 0.014-0.149 0.043-0.209s0.069-0.106 0.121-0.138c0.052-0.032 0.112-0.049 0.179-0.049s0.126 0.016 0.178 0.049c0.052 0.032 0.092 0.078 0.121 0.138s0.043 0.129 0.043 0.208v0.036zM13.821 18.503c0-0.084-0.015-0.148-0.045-0.192-0.027-0.040-0.072-0.066-0.123-0.066-0.002 0-0.005 0-0.007 0h0c-0.002-0-0.004-0-0.006-0-0.051 0-0.095 0.026-0.122 0.065l-0 0.001c-0.030 0.043-0.045 0.106-0.046 0.19v0.039c0 0.082 0.015 0.146 0.045 0.191s0.073 0.068 0.13 0.068c0.002 0 0.004 0 0.007 0 0.050 0 0.095-0.026 0.121-0.065l0-0.001c0.030-0.044 0.045-0.107 0.045-0.191v-0.039zM14.525 18.712c0-0.001 0-0.003 0-0.005 0-0.027-0.013-0.051-0.033-0.067l-0-0c-0.022-0.017-0.062-0.035-0.119-0.053-0.053-0.016-0.098-0.035-0.141-0.057l0.005 0.002c-0.091-0.049-0.137-0.116-0.137-0.199 0-0.043 0.012-0.082 0.036-0.116s0.060-0.061 0.105-0.080c0.046-0.019 0.097-0.029 0.154-0.029s0.108 0.011 0.153 0.031c0.045 0.021 0.080 0.050 0.104 0.088s0.038 0.081 0.038 0.129h-0.166c0-0.037-0.011-0.065-0.035-0.085s-0.056-0.031-0.098-0.031c-0.040 0-0.072 0.009-0.094 0.026-0.021 0.015-0.034 0.039-0.034 0.065 0 0.001 0 0.001 0 0.002v-0c0 0.026 0.013 0.048 0.039 0.066s0.065 0.034 0.116 0.050c0.094 0.028 0.163 0.063 0.206 0.105s0.064 0.094 0.064 0.156c0 0.070-0.026 0.124-0.079 0.164s-0.123 0.059-0.212 0.059c-0.062 0-0.118-0.011-0.169-0.034-0.048-0.020-0.087-0.052-0.116-0.092l-0.001-0.001c-0.025-0.037-0.040-0.083-0.040-0.132 0-0.002 0-0.003 0-0.005v0h0.166c0 0.088 0.053 0.133 0.159 0.133 0.040 0 0.070-0.008 0.092-0.024 0.020-0.014 0.033-0.038 0.033-0.064 0-0.001-0-0.002-0-0.003v0zM15.408 18.253h-0.246v0.669h-0.165v-0.669h-0.243v-0.134h0.654v0.134zM15.986 18.574h-0.318v0.215h0.373v0.133h-0.538v-0.803h0.537v0.134h-0.372v0.191h0.318v0.13zM16.435 18.628h-0.132v0.294h-0.166v-0.803h0.299c0.095 0 0.168 0.021 0.219 0.063s0.077 0.102 0.077 0.179c0 0.055-0.012 0.101-0.036 0.137-0.027 0.039-0.063 0.068-0.106 0.086l-0.002 0.001 0.174 0.328v0.008h-0.177l-0.151-0.294zM16.304 18.494h0.133c0.041 0 0.074-0.011 0.097-0.031 0.021-0.021 0.034-0.050 0.034-0.082 0-0.002-0-0.004-0-0.006v0c0-0.038-0.011-0.068-0.033-0.089s-0.054-0.033-0.099-0.033h-0.133v0.241zM17.306 18.639v0.283h-0.165v-0.803h0.313c0.060 0 0.113 0.011 0.159 0.033s0.081 0.053 0.106 0.094c0.025 0.040 0.037 0.087 0.037 0.139 0 0.079-0.027 0.141-0.081 0.186s-0.128 0.068-0.223 0.068h-0.145zM17.306 18.505h0.148c0.044 0 0.077-0.010 0.1-0.031s0.035-0.050 0.035-0.088c0-0.002 0-0.004 0-0.006 0-0.035-0.013-0.066-0.035-0.090l0 0c-0.023-0.024-0.055-0.037-0.096-0.038h-0.152v0.252zM18.353 18.574h-0.318v0.215h0.373v0.133h-0.538v-0.803h0.537v0.134h-0.372v0.191h0.318v0.13zM19.121 18.253h-0.246v0.669h-0.165v-0.669h-0.243v-0.134h0.654v0.134zM19.698 18.574h-0.318v0.215h0.373v0.133h-0.538v-0.803h0.537v0.134h-0.372v0.191h0.318v0.13zM20.148 18.628h-0.132v0.294h-0.165v-0.803h0.298c0.095 0 0.168 0.021 0.219 0.063s0.077 0.102 0.077 0.179c0 0.055-0.012 0.101-0.036 0.137-0.027 0.039-0.063 0.068-0.106 0.086l-0.002 0.001 0.174 0.328v0.008h-0.178l-0.15-0.294zM20.016 18.494h0.133c0.042 0 0.074-0.011 0.097-0.031 0.021-0.021 0.034-0.050 0.034-0.082 0-0.002-0-0.004-0-0.006v0c0-0.038-0.011-0.068-0.033-0.089s-0.054-0.033-0.099-0.033h-0.133v0.241zM20.988 18.712c0-0.001 0-0.003 0-0.005 0-0.027-0.013-0.051-0.033-0.067l-0-0c-0.022-0.017-0.062-0.035-0.119-0.053-0.053-0.016-0.098-0.035-0.141-0.057l0.005 0.002c-0.091-0.049-0.137-0.116-0.137-0.199 0-0.043 0.012-0.082 0.036-0.116s0.060-0.061 0.105-0.080c0.046-0.019 0.097-0.029 0.154-0.029 0.002-0 0.004-0 0.006-0 0.053 0 0.104 0.012 0.149 0.032l-0.002-0.001c0.045 0.021 0.080 0.050 0.104 0.088s0.037 0.081 0.037 0.129h-0.165c0-0.037-0.011-0.065-0.035-0.085s-0.056-0.031-0.098-0.031c-0.040 0-0.072 0.009-0.094 0.026-0.020 0.015-0.034 0.038-0.034 0.065 0 0.001 0 0.002 0 0.002v-0c0 0.026 0.013 0.048 0.039 0.066s0.065 0.034 0.116 0.050c0.094 0.028 0.163 0.063 0.206 0.105s0.064 0.094 0.064 0.156c0 0.070-0.026 0.124-0.079 0.164s-0.123 0.059-0.212 0.059c-0.002 0-0.003 0-0.005 0-0.059 0-0.115-0.012-0.166-0.035l0.003 0.001c-0.048-0.020-0.087-0.052-0.116-0.092l-0.001-0.001c-0.025-0.037-0.040-0.083-0.040-0.132 0-0.002 0-0.003 0-0.005v0h0.166c0 0.088 0.053 0.133 0.159 0.133 0.039 0 0.070-0.008 0.092-0.024 0.020-0.014 0.033-0.038 0.033-0.064 0-0.001-0-0.002-0-0.003v0z"></path>
</symbol>
<symbol id="icon-client5-logo" viewBox="0 0 32 32">
<path fill="#afb1b8" style="fill: var(--color3, #afb1b8)" d="M11.386 19.064c0.043 0.054 0.066 0.121 0.065 0.19 0 0.004 0 0.009 0 0.015 0 0.090-0.039 0.17-0.101 0.226l-0 0c-0.084 0.064-0.188 0.095-0.293 0.088h-0.516v-1.206h0.505c0.009-0.001 0.018-0.001 0.028-0.001 0.094 0 0.182 0.030 0.253 0.082l-0.001-0.001c0.060 0.051 0.098 0.126 0.098 0.211 0 0.005-0 0.010-0 0.015l0-0.001c0.003 0.066-0.018 0.132-0.059 0.184-0.039 0.048-0.093 0.081-0.154 0.094 0.069 0.013 0.13 0.049 0.174 0.103zM10.781 18.882h0.216c0.049 0.004 0.098-0.011 0.137-0.040 0.029-0.026 0.047-0.064 0.047-0.106 0-0.004-0-0.008-0.001-0.013l0 0.001c0-0.003 0-0.007 0-0.010 0-0.042-0.018-0.080-0.046-0.107l-0-0c-0.034-0.026-0.077-0.041-0.124-0.041-0.006 0-0.012 0-0.018 0.001l0.001-0h-0.212v0.316zM11.155 19.344c0.032-0.028 0.051-0.068 0.051-0.113 0-0.003-0-0.007-0-0.010l0 0c0-0.003 0-0.006 0-0.009 0-0.046-0.020-0.087-0.052-0.115l-0-0c-0.037-0.027-0.083-0.044-0.133-0.044-0.005 0-0.010 0-0.015 0l0.001-0h-0.226v0.331h0.229c0.052 0.003 0.103-0.012 0.145-0.042zM12.418 19.582l-0.281-0.471h-0.106v0.471h-0.242v-1.206h0.457c0.009-0.001 0.020-0.001 0.031-0.001 0.11 0 0.21 0.039 0.288 0.104l-0.001-0.001c0.068 0.069 0.11 0.164 0.11 0.269 0 0.086-0.028 0.166-0.077 0.231l0.001-0.001c-0.056 0.065-0.133 0.108-0.218 0.122l0.299 0.482h-0.263zM12.032 18.947h0.198c0.137 0 0.206-0.061 0.206-0.183 0-0.003 0-0.007 0-0.010 0-0.049-0.019-0.093-0.051-0.125l0 0c-0.037-0.031-0.085-0.050-0.137-0.050-0.007 0-0.013 0-0.019 0.001l0.001-0h-0.2l0.002 0.367zM13.739 19.34h-0.482l-0.085 0.243h-0.253l0.442-1.192h0.274l0.44 1.192h-0.253l-0.083-0.243zM13.675 19.157l-0.176-0.509-0.176 0.509h0.352zM15.393 19.582h-0.24l-0.538-0.82v0.82h-0.239v-1.206h0.239l0.538 0.824v-0.824h0.24v1.206zM16.762 19.294c-0.050 0.091-0.125 0.164-0.214 0.211l-0.003 0.001c-0.104 0.053-0.22 0.079-0.337 0.076h-0.427v-1.206h0.427c0.006-0 0.012-0 0.019-0 0.116 0 0.226 0.028 0.323 0.076l-0.004-0.002c0.092 0.046 0.168 0.12 0.217 0.21 0.047 0.092 0.075 0.201 0.075 0.316s-0.028 0.224-0.077 0.32l0.002-0.004zM16.488 19.265c0.066-0.077 0.106-0.178 0.106-0.288s-0.040-0.211-0.107-0.288l0 0.001c-0.073-0.064-0.169-0.103-0.274-0.103-0.009 0-0.018 0-0.027 0.001l0.001-0h-0.167v0.78h0.167c0.008 0.001 0.017 0.001 0.026 0.001 0.105 0 0.201-0.039 0.275-0.104l-0 0zM13.89 11.671s3.097 1.174 3.031 2.872v2.873s-3.094-1.175-3.030-2.873l-0.001-2.872zM19.679 16.744c0.554-0.388 1.224-0.648 1.949-0.726l0.019-0.002v-0.899c-0.828 0.327-1.503 0.892-1.958 1.611l-0.010 0.017z"></path>
<path fill="#afb1b8" style="fill: var(--color3, #afb1b8)" d="M19.328 17.014c0.484-0.964 1.297-1.703 2.29-2.077l0.029-0.010v-2.591s-4.41 1.672-4.317 4.091v4.091s0.197-0.075 0.506-0.215c0-0.131 0-0.263 0.014-0.395 0.097-1.163 0.648-2.181 1.473-2.888l0.006-0.005z"></path>
<path fill="#afb1b8" style="fill: var(--color3, #afb1b8)" d="M18.909 18.534c0.023-0.284 0.075-0.564 0.154-0.838-0.563 0.664-0.913 1.525-0.934 2.466l-0 0.004c0.359-0.173 0.637-0.322 0.908-0.481l-0.060 0.033c-0.053-0.251-0.083-0.539-0.083-0.835 0-0.123 0.005-0.245 0.015-0.365l-0.001 0.016zM19.084 18.549c-0.009 0.099-0.014 0.215-0.014 0.332 0 0.262 0.025 0.518 0.072 0.766l-0.004-0.025c1.205-0.724 2.559-1.842 2.507-3.194v-0.118c-0.897 0.104-1.688 0.494-2.294 1.077l0.001-0.001c-0.139 0.341-0.234 0.737-0.268 1.149l-0.001 0.014z"></path>
</symbol>
<symbol id="icon-client6-logo" viewBox="0 0 32 32">
<path fill="#afb1b8" style="fill: var(--color3, #afb1b8)" d="M16.139 15.69c-0.068-0.097-0.109-0.218-0.109-0.348 0-0.014 0-0.027 0.001-0.041l-0 0.002v-0.562c0-0.172 0.036-0.303 0.107-0.392s0.194-0.134 0.367-0.134c0.163 0 0.279 0.038 0.347 0.114 0.075 0.097 0.111 0.216 0.102 0.336v0.132h-0.291v-0.134c0-0.005 0-0.011 0-0.017 0-0.040-0.003-0.079-0.009-0.118l0.001 0.004c-0.005-0.031-0.020-0.058-0.041-0.078l-0-0c-0.026-0.019-0.058-0.031-0.093-0.031-0.004 0-0.009 0-0.013 0.001l0.001-0c-0.004-0-0.008-0-0.012-0-0.037 0-0.072 0.012-0.099 0.033l0-0c-0.024 0.022-0.042 0.051-0.048 0.085l-0 0.001c-0.008 0.046-0.012 0.092-0.011 0.139v0.681c-0.005 0.066 0.008 0.131 0.037 0.191 0.015 0.020 0.035 0.036 0.057 0.046l0.001 0c0.017 0.008 0.037 0.012 0.058 0.012 0.006 0 0.012-0 0.018-0.001l-0.001 0c0.004 0 0.008 0 0.012 0 0.035 0 0.066-0.012 0.092-0.032l-0 0c0.023-0.021 0.038-0.050 0.043-0.082l0-0.001c0.007-0.045 0.010-0.091 0.009-0.136v-0.138h0.291v0.126c0.001 0.010 0.001 0.023 0.001 0.035 0 0.119-0.038 0.23-0.103 0.32l0.001-0.002c-0.067 0.083-0.181 0.125-0.349 0.125s-0.294-0.044-0.366-0.137zM17.353 15.696c-0.074-0.088-0.11-0.215-0.11-0.383v-0.591c0-0.167 0.037-0.293 0.11-0.379s0.197-0.128 0.369-0.128c0.171 0 0.294 0.043 0.367 0.128s0.111 0.212 0.111 0.379v0.591c0 0.167-0.038 0.295-0.112 0.383s-0.197 0.132-0.366 0.132c-0.169 0-0.295-0.044-0.369-0.131zM17.858 15.554c0.026-0.055 0.038-0.115 0.035-0.175v-0.723c0-0.006 0.001-0.013 0.001-0.019 0-0.055-0.013-0.107-0.036-0.154l0.001 0.002c-0.015-0.021-0.035-0.037-0.059-0.047l-0.001-0c-0.017-0.007-0.036-0.011-0.057-0.011-0.007 0-0.014 0.001-0.021 0.001l0.001-0c-0.006-0.001-0.013-0.001-0.020-0.001-0.021 0-0.040 0.004-0.058 0.012l0.001-0c-0.024 0.010-0.044 0.026-0.059 0.047l-0 0c-0.027 0.053-0.039 0.112-0.035 0.171v0.726c-0.004 0.060 0.008 0.12 0.035 0.175 0.017 0.018 0.037 0.033 0.060 0.043l0.001 0c0.022 0.010 0.048 0.015 0.075 0.015s0.053-0.006 0.076-0.016l-0.001 0c0.024-0.010 0.044-0.025 0.061-0.043l0-0v-0.003zM18.551 14.232h0.314l0.236 1.090 0.241-1.090h0.305l0.031 1.573h-0.226l-0.024-1.093-0.233 1.093h-0.181l-0.241-1.097-0.022 1.097h-0.228l0.028-1.573zM20.029 14.232h0.489c0.282 0 0.422 0.149 0.422 0.447 0 0.285-0.148 0.427-0.445 0.427h-0.166v0.699h-0.302l0.002-1.573zM20.447 14.905c0.030 0.004 0.060 0.001 0.089-0.008s0.055-0.023 0.077-0.042c0.035-0.053 0.050-0.115 0.043-0.178 0-0.005 0-0.011 0-0.018 0-0.044-0.005-0.088-0.016-0.129l0.001 0.004c-0.005-0.017-0.012-0.031-0.022-0.043l0 0c-0.010-0.013-0.023-0.023-0.037-0.031l-0.001-0c-0.035-0.016-0.076-0.025-0.119-0.025-0.006 0-0.011 0-0.017 0l0.001-0h-0.117v0.47h0.117zM21.375 14.232h0.324l0.332 1.573h-0.281l-0.066-0.363h-0.289l-0.068 0.363h-0.285l0.332-1.573zM21.652 15.261l-0.113-0.66-0.113 0.66h0.226zM22.3 14.232h0.211l0.404 0.897v-0.897h0.25v1.573h-0.201l-0.407-0.937v0.937h-0.259l0.001-1.573zM23.752 15.206l-0.336-0.971h0.283l0.205 0.624 0.193-0.624h0.277l-0.332 0.971v0.6h-0.29v-0.6zM16.605 16.493v0.082h-0.246v0.639h-0.103v-0.639h-0.247v-0.082h0.597zM17.377 17.214h-0.080c-0.001 0-0.001 0-0.002 0-0.008 0-0.015-0.003-0.020-0.007l0 0c-0.006-0.004-0.010-0.010-0.013-0.016l-0-0-0.071-0.171h-0.341l-0.071 0.171c-0.002 0.008-0.006 0.014-0.011 0.019l0-0c-0.006 0.004-0.013 0.007-0.021 0.007-0.001 0-0.001-0-0.002-0h-0.080l0.302-0.721h0.105l0.305 0.718zM16.877 16.946h0.285l-0.12-0.294c-0.008-0.018-0.015-0.041-0.022-0.064l-0.001-0.004-0.011 0.038-0.011 0.030-0.12 0.293zM17.897 17.144c0.019 0.001 0.038 0.001 0.056 0 0.017-0.002 0.033-0.005 0.048-0.009 0.017-0.004 0.032-0.009 0.046-0.014l-0.002 0.001c0.013-0.005 0.027-0.011 0.040-0.018v-0.162h-0.121c-0 0-0.001 0-0.001 0-0.006 0-0.011-0.002-0.015-0.006l0 0c-0.004-0.003-0.006-0.008-0.006-0.013 0-0 0-0 0-0v0-0.056h0.234v0.277c-0.037 0.025-0.079 0.045-0.124 0.058l-0.003 0.001c-0.021 0.006-0.047 0.012-0.073 0.015l-0.002 0c-0.026 0.003-0.056 0.005-0.087 0.005-0 0-0.001 0-0.001 0h0c-0.001 0-0.002 0-0.003 0-0.053 0-0.105-0.010-0.152-0.028l0.003 0.001c-0.047-0.018-0.087-0.044-0.121-0.075l0 0c-0.033-0.032-0.059-0.070-0.077-0.112l-0.001-0.002c-0.018-0.043-0.028-0.092-0.028-0.145 0-0.002 0-0.004 0-0.005v0c-0-0.001-0-0.003-0-0.005 0-0.052 0.010-0.103 0.028-0.149l-0.001 0.003c0.017-0.043 0.044-0.082 0.078-0.114s0.075-0.058 0.121-0.075c0.052-0.018 0.107-0.027 0.162-0.027 0.028 0 0.056 0.002 0.084 0.006 0.024 0.004 0.049 0.010 0.072 0.018 0.021 0.008 0.041 0.017 0.060 0.029s0.036 0.024 0.053 0.038l-0.029 0.045c-0.002 0.004-0.006 0.007-0.010 0.010l-0 0c-0.004 0.002-0.009 0.004-0.014 0.004h-0c-0.007-0-0.013-0.002-0.019-0.006l0 0c-0.012-0.006-0.022-0.012-0.031-0.018l0.001 0.001c-0.011-0.007-0.025-0.014-0.039-0.019l-0.002-0.001c-0.015-0.006-0.034-0.012-0.053-0.016l-0.002-0c-0.022-0.004-0.047-0.006-0.072-0.006-0.001 0-0.003 0-0.004 0h0c-0.001 0-0.002-0-0.004-0-0.040 0-0.079 0.007-0.115 0.021l0.002-0.001c-0.035 0.013-0.064 0.033-0.089 0.057v0c-0.025 0.026-0.044 0.056-0.056 0.090-0.013 0.036-0.020 0.077-0.020 0.12s0.007 0.084 0.021 0.123l-0.001-0.003c0.013 0.034 0.034 0.065 0.060 0.091 0.025 0.025 0.055 0.044 0.088 0.057 0.038 0.012 0.079 0.017 0.12 0.014zM18.858 17.132h0.329v0.082h-0.43v-0.721h0.103l-0.002 0.639zM19.531 17.214h-0.103v-0.721h0.103v0.721zM19.914 16.496c0.006 0.003 0.011 0.008 0.016 0.013l0 0 0.441 0.544c-0-0.004-0-0.008-0-0.013s0-0.009 0-0.014l-0 0.001v-0.537h0.090v0.724h-0.052c-0.001 0-0.002 0-0.004 0-0.007 0-0.013-0.002-0.019-0.004l0 0c-0.006-0.004-0.012-0.008-0.016-0.014l-0-0-0.44-0.543v0.561h-0.086v-0.721h0.054c0.006 0 0.012 0.001 0.017 0.003zM21.22 16.493v0.079h-0.366v0.238h0.296v0.076h-0.296v0.246h0.366v0.079h-0.472v-0.72h0.472zM10.41 12.038l4.581 1.231v4.315l-4.581-1.23v-4.315zM10.116 11.671v4.893l5.168 1.39v-4.892l-5.168-1.39z"></path>
<path fill="#afb1b8" style="fill: var(--color3, #afb1b8)" d="M12.886 20.224l-5.168-1.391v-4.892l5.168 1.39v4.893z"></path>
<path fill="#afb1b8" style="fill: var(--color3, #afb1b8)" d="M10.202 11.983l4.521 1.216-1.923 1.82-4.521-1.216 1.923-1.82zM10.116 11.671l-2.399 2.271 5.168 1.39 2.398-2.271-5.168-1.39zM13.177 19.949l2.107-1.995-2.107-0.567v2.562z"></path>
</symbol>
<symbol id="icon-ellipse" viewBox="0 0 32 32">
<path fill="#fff" style="fill: var(--color4, #fff)" opacity="0.1" d="M32 16c0 0.006 0 0.013 0 0.020 0 4.412-1.791 8.405-4.686 11.293l-0 0c-2.888 2.895-6.881 4.687-11.293 4.687-0.007 0-0.014 0-0.021 0h0.001c-0.006 0-0.013 0-0.020 0-4.412 0-8.405-1.791-11.293-4.686l-0-0c-2.895-2.888-4.687-6.881-4.687-11.293 0-0.007 0-0.014 0-0.021v0.001c0-0.006 0-0.013 0-0.020 0-4.412 1.791-8.405 4.686-11.293l0-0c2.888-2.895 6.881-4.687 11.293-4.687 0.007 0 0.014 0 0.021 0h-0.001c0.006 0 0.013 0 0.020 0 4.412 0 8.405 1.791 11.293 4.686l0 0c2.895 2.888 4.687 6.881 4.687 11.293 0 0.007 0 0.014 0 0.021v-0.001z"></path>
<path fill="#fff" style="fill: var(--color4, #fff)" d="M23.258 13.004c-0.033-0.773-0.159-1.304-0.337-1.764-0.193-0.505-0.479-0.936-0.841-1.29l-0.001-0.001c-0.354-0.36-0.784-0.645-1.263-0.83l-0.024-0.008c-0.463-0.179-0.991-0.304-1.764-0.337-0.778-0.037-1.025-0.046-3.001-0.046s-2.222 0.009-2.998 0.043c-0.773 0.033-1.304 0.159-1.764 0.338-0.505 0.193-0.936 0.479-1.29 0.84l-0.001 0.001c-0.36 0.354-0.645 0.784-0.83 1.263l-0.008 0.024c-0.18 0.463-0.304 0.991-0.338 1.764-0.037 0.778-0.046 1.025-0.046 3.001s0.009 2.222 0.043 2.998c0.034 0.773 0.159 1.304 0.338 1.764 0.194 0.505 0.48 0.935 0.84 1.29l0.001 0c0.364 0.369 0.804 0.656 1.287 0.838 0.463 0.18 0.992 0.305 1.764 0.338 0.776 0.034 1.023 0.043 2.998 0.043s2.222-0.009 2.998-0.043c0.773-0.033 1.304-0.159 1.764-0.337 0.981-0.386 1.742-1.148 2.12-2.104l0.009-0.025c0.179-0.463 0.304-0.992 0.338-1.764 0.034-0.776 0.042-1.023 0.042-2.998s-0.003-2.222-0.036-2.998zM21.949 18.943c-0.032 0.711-0.151 1.094-0.25 1.349-0.251 0.637-0.745 1.131-1.365 1.376l-0.016 0.006c-0.255 0.099-0.641 0.218-1.349 0.249-0.767 0.034-0.997 0.043-2.938 0.043s-2.174-0.009-2.938-0.043c-0.711-0.031-1.094-0.151-1.35-0.25-0.328-0.122-0.606-0.307-0.834-0.542l-0.001-0.001c-0.235-0.229-0.42-0.508-0.538-0.819l-0.005-0.016c-0.099-0.256-0.218-0.642-0.249-1.35-0.034-0.767-0.043-0.998-0.043-2.938s0.009-2.175 0.043-2.938c0.031-0.711 0.151-1.094 0.249-1.35 0.122-0.328 0.308-0.608 0.545-0.835l0.001-0.001c0.229-0.235 0.509-0.42 0.821-0.537l0.016-0.005c0.255-0.099 0.641-0.218 1.349-0.25 0.767-0.033 0.998-0.042 2.938-0.042 1.943 0 2.174 0.008 2.938 0.042 0.711 0.031 1.094 0.151 1.35 0.25 0.315 0.116 0.602 0.301 0.835 0.543 0.241 0.236 0.426 0.52 0.543 0.836 0.099 0.255 0.218 0.641 0.249 1.349 0.034 0.767 0.043 0.997 0.043 2.938s-0.009 2.167-0.043 2.935z"></path>
<path fill="#fff" style="fill: var(--color4, #fff)" d="M16.027 12.265c-0 0-0 0-0.001 0-2.064 0-3.737 1.673-3.737 3.737s1.673 3.737 3.737 3.737c2.064 0 3.737-1.673 3.737-3.737 0-0 0-0 0-0.001v0c-0-2.064-1.673-3.736-3.737-3.737h-0zM16.027 18.425c-1.339-0-2.424-1.085-2.424-2.424s1.085-2.424 2.424-2.424c0 0 0 0 0 0h-0c1.339 0 2.424 1.085 2.424 2.424s-1.085 2.424-2.424 2.424v0zM20.784 12.117c0 0.482-0.391 0.873-0.873 0.873s-0.873-0.391-0.873-0.873v0c0-0.482 0.391-0.873 0.873-0.873s0.873 0.391 0.873 0.873v0z"></path>
</symbol>
<symbol id="icon-ellipse1" viewBox="0 0 32 32">
<path fill="#2196f3" style="fill: var(--color2, #2196f3)" d="M32 16c0 0.006 0 0.013 0 0.020 0 4.412-1.791 8.405-4.686 11.293l-0 0c-2.888 2.895-6.881 4.687-11.293 4.687-0.007 0-0.014 0-0.021 0h0.001c-0.006 0-0.013 0-0.020 0-4.412 0-8.405-1.791-11.293-4.686l-0-0c-2.895-2.888-4.687-6.881-4.687-11.293 0-0.007 0-0.014 0-0.021v0.001c0-0.006 0-0.013 0-0.020 0-4.412 1.791-8.405 4.686-11.293l0-0c2.888-2.895 6.881-4.687 11.293-4.687 0.007 0 0.014 0 0.021 0h-0.001c0.006 0 0.013 0 0.020 0 4.412 0 8.405 1.791 11.293 4.686l0 0c2.895 2.888 4.687 6.881 4.687 11.293 0 0.007 0 0.014 0 0.021v-0.001z"></path>
<path fill="#fff" style="fill: var(--color4, #fff)" d="M23.273 11.49c-0.5 0.224-1.080 0.39-1.688 0.467l-0.031 0.003c0.618-0.371 1.083-0.945 1.306-1.627l0.006-0.021c-0.544 0.328-1.178 0.579-1.853 0.715l-0.038 0.006c-0.545-0.582-1.319-0.945-2.177-0.945-1.646 0-2.981 1.335-2.981 2.981 0 0.001 0 0.002 0 0.003v-0c0 0.236 0.020 0.464 0.070 0.68-2.479-0.121-4.673-1.309-6.147-3.119-0.256 0.432-0.407 0.952-0.407 1.508v0c0 1.033 0.531 1.948 1.324 2.478-0.496-0.014-0.958-0.148-1.362-0.375l0.015 0.008v0.033c0.001 1.439 1.017 2.64 2.37 2.927l0.020 0.003c-0.227 0.062-0.487 0.098-0.756 0.098-0.009 0-0.018-0-0.028-0h0.001c-0.014 0-0.030 0-0.047 0-0.183 0-0.362-0.019-0.534-0.054l0.017 0.003c0.386 1.181 1.483 2.049 2.786 2.078-1.006 0.793-2.292 1.271-3.69 1.271-0.003 0-0.005 0-0.008 0h0c-0.012 0-0.026 0-0.039 0-0.238 0-0.472-0.015-0.701-0.044l0.027 0.003c1.285 0.839 2.858 1.338 4.547 1.338 0.010 0 0.019-0 0.029-0h-0.002c5.487 0 8.487-4.545 8.487-8.486 0-0.131-0.004-0.259-0.011-0.385 0.59-0.425 1.087-0.938 1.481-1.526l0.014-0.021z"></path>
</symbol>
<symbol id="icon-ellipse2" viewBox="0 0 32 32">
<path fill="#fff" style="fill: var(--color4, #fff)" opacity="0.1" d="M32 16c0 0.006 0 0.013 0 0.020 0 4.412-1.791 8.405-4.686 11.293l-0 0c-2.888 2.895-6.881 4.687-11.293 4.687-0.007 0-0.014 0-0.021 0h0.001c-0.006 0-0.013 0-0.020 0-4.412 0-8.405-1.791-11.293-4.686l-0-0c-2.895-2.888-4.687-6.881-4.687-11.293 0-0.007 0-0.014 0-0.021v0.001c0-0.006 0-0.013 0-0.020 0-4.412 1.791-8.405 4.686-11.293l0-0c2.888-2.895 6.881-4.687 11.293-4.687 0.007 0 0.014 0 0.021 0h-0.001c0.006 0 0.013 0 0.020 0 4.412 0 8.405 1.791 11.293 4.686l0 0c2.895 2.888 4.687 6.881 4.687 11.293 0 0.007 0 0.014 0 0.021v-0.001z"></path>
<path fill="#fff" style="fill: var(--color4, #fff)" d="M18.422 11.142h1.329v-2.313c-0.56-0.065-1.21-0.102-1.867-0.102-0.024 0-0.047 0-0.071 0h0.004c-1.915 0-3.226 1.204-3.226 3.418v2.036h-2.113v2.585h2.113v6.505h2.59v-6.505h2.028l0.321-2.585h-2.349v-1.782c0-0.747 0.201-1.258 1.243-1.258z"></path>
</symbol>
<symbol id="icon-ellipse3" viewBox="0 0 32 32">
<path fill="#fff" style="fill: var(--color4, #fff)" opacity="0.1" d="M32 16c0 0.006 0 0.013 0 0.020 0 4.412-1.791 8.405-4.686 11.293l-0 0c-2.888 2.895-6.881 4.687-11.293 4.687-0.007 0-0.014 0-0.021 0h0.001c-0.006 0-0.013 0-0.020 0-4.412 0-8.405-1.791-11.293-4.686l-0-0c-2.895-2.888-4.687-6.881-4.687-11.293 0-0.007 0-0.014 0-0.021v0.001c0-0.006 0-0.013 0-0.020 0-4.412 1.791-8.405 4.686-11.293l0-0c2.888-2.895 6.881-4.687 11.293-4.687 0.007 0 0.014 0 0.021 0h-0.001c0.006 0 0.013 0 0.020 0 4.412 0 8.405 1.791 11.293 4.686l0 0c2.895 2.888 4.687 6.881 4.687 11.293 0 0.007 0 0.014 0 0.021v-0.001z"></path>
<path fill="#fff" style="fill: var(--color4, #fff)" d="M23.269 23.273h0.004v-5.335c0-2.609-0.561-4.62-3.612-4.62-1.467 0-2.451 0.804-2.853 1.567h-0.042v-1.324h-2.893v9.711h3.012v-4.808c0-1.266 0.24-2.491 1.808-2.491 1.545 0 1.568 1.445 1.568 2.572v4.728h3.009zM8.967 13.562h3.016v9.711h-3.016v-9.711zM10.474 8.727c-0.965 0-1.747 0.782-1.747 1.747v0c0 0.964 0.783 1.763 1.747 1.763s1.746-0.799 1.746-1.763c-0-0.964-0.782-1.746-1.746-1.747h-0z"></path>
</symbol>
<symbol id="icon-envelope" viewBox="0 0 32 32">
<path fill="#757575" style="fill: var(--color2, #757575)" d="M29 4h-26c-1.654 0-3 1.256-3 2.8v16.804c0 1.544 1.346 2.8 3 2.8h26c1.654 0 3-1.256 3-2.8v-16.804c0-1.544-1.346-2.8-3-2.8zM29 5.866c0.136 0 0.266 0.028 0.384 0.074l-13.384 10.828-13.384-10.828c0.114-0.046 0.246-0.073 0.384-0.074h26zM29 24.536h-26c-0.552 0-1-0.418-1-0.932v-15.692l13.344 10.796c0.176 0.142 0.403 0.228 0.65 0.228 0.002 0 0.004 0 0.006-0h-0c0.002 0 0.004 0 0.006 0 0.247 0 0.474-0.086 0.652-0.23l-0.002 0.002 13.344-10.796v15.692c0 0.514-0.448 0.932-1 0.932z"></path>
</symbol>
<symbol id="icon-faceb" viewBox="0 0 32 32">
<path fill="#afb1b8" style="fill: var(--color3, #afb1b8)" d="M21.328 5.312h2.923v-5.088c-1.232-0.143-2.66-0.224-4.107-0.224-0.052 0-0.104 0-0.157 0l0.008-0c-4.213 0-7.099 2.65-7.099 7.52v4.48h-4.646v5.688h4.646v14.312h5.698v-14.31h4.461l0.707-5.688h-5.168v-3.922c0-1.643 0.443-2.768 2.734-2.768z"></path>
</symbol>
<symbol id="icon-insta" viewBox="0 0 32 32">
<path fill="#afb1b8" style="fill: var(--color3, #afb1b8)" d="M31.968 9.408c-0.074-1.701-0.349-2.869-0.742-3.882-0.424-1.111-1.054-2.059-1.85-2.837l-0.001-0.001c-0.78-0.792-1.724-1.419-2.778-1.827l-0.054-0.018c-1.019-0.394-2.181-0.667-3.882-0.742-1.712-0.082-2.256-0.101-6.602-0.101-4.344 0-4.888 0.019-6.595 0.094-1.699 0.074-2.869 0.349-3.88 0.742-1.112 0.424-2.060 1.054-2.839 1.85l-0.001 0.001c-0.791 0.78-1.418 1.724-1.825 2.778l-0.018 0.054c-0.395 1.019-0.669 2.181-0.744 3.882-0.082 1.712-0.101 2.256-0.101 6.602 0 4.344 0.019 4.888 0.094 6.595 0.075 1.701 0.35 2.869 0.744 3.882 0.426 1.11 1.055 2.057 1.849 2.837l0.001 0.001c0.8 0.813 1.77 1.443 2.832 1.843 1.019 0.395 2.182 0.67 3.882 0.744 1.707 0.075 2.251 0.094 6.595 0.094 4.346 0 4.89-0.019 6.595-0.094 1.701-0.074 2.869-0.349 3.882-0.742 2.157-0.85 3.833-2.526 4.664-4.628l0.019-0.055c0.394-1.019 0.669-2.182 0.744-3.882 0.075-1.707 0.093-2.251 0.093-6.595s-0.006-4.888-0.080-6.595zM29.088 22.474c-0.070 1.563-0.333 2.406-0.55 2.97-0.552 1.399-1.64 2.486-3.004 3.024l-0.036 0.012c-0.56 0.219-1.411 0.482-2.968 0.55-1.688 0.075-2.194 0.094-6.464 0.094-4.269 0-4.782-0.019-6.464-0.094-1.563-0.069-2.406-0.331-2.97-0.55-0.721-0.269-1.334-0.676-1.836-1.192l-0.001-0.001c-0.517-0.503-0.924-1.117-1.184-1.803l-0.011-0.034c-0.218-0.563-0.48-1.413-0.549-2.97-0.075-1.688-0.094-2.195-0.094-6.464 0-4.27 0.019-4.784 0.094-6.464 0.069-1.563 0.331-2.406 0.549-2.97 0.269-0.722 0.678-1.337 1.198-1.837l0.002-0.002c0.504-0.517 1.119-0.923 1.806-1.182l0.034-0.011c0.56-0.219 1.411-0.48 2.968-0.55 1.688-0.074 2.195-0.093 6.464-0.093 4.275 0 4.782 0.019 6.464 0.093 1.563 0.069 2.406 0.331 2.97 0.55 0.693 0.256 1.325 0.662 1.837 1.194 0.531 0.52 0.938 1.144 1.195 1.84 0.218 0.56 0.48 1.411 0.549 2.968 0.075 1.688 0.094 2.194 0.094 6.464 0 4.269-0.019 4.768-0.094 6.458z"></path>
<path fill="#afb1b8" style="fill: var(--color3, #afb1b8)" d="M16.059 7.782c-4.539 0.002-8.218 3.682-8.219 8.221v0c0 0 0 0.001 0 0.002 0 4.541 3.681 8.222 8.222 8.222s8.222-3.681 8.222-8.222c0-4.541-3.681-8.222-8.222-8.222-0.001 0-0.001 0-0.002 0h0zM16.059 21.334c-2.945-0-5.332-2.388-5.332-5.333s2.388-5.333 5.333-5.333c0 0 0.001 0 0.001 0h-0c2.946 0 5.334 2.388 5.334 5.334s-2.388 5.334-5.334 5.334v0zM26.525 7.458c0 1.060-0.86 1.92-1.92 1.92s-1.92-0.86-1.92-1.92v0c0-1.060 0.86-1.92 1.92-1.92s1.92 0.86 1.92 1.92v0z"></path>
</symbol>
<symbol id="icon-linkedin" viewBox="0 0 32 32">
<path fill="#afb1b8" style="fill: var(--color3, #afb1b8)" d="M31.992 32h0.008v-11.738c0-5.741-1.235-10.163-7.947-10.163-3.227 0-5.392 1.77-6.277 3.45h-0.093v-2.914h-6.365v21.363h6.627v-10.578c0-2.786 0.528-5.48 3.978-5.48 3.398 0 3.45 3.179 3.45 5.658v10.402h6.619zM0.528 10.635h6.635v21.365h-6.635v-21.365zM3.843 0c-2.123 0-3.843 1.721-3.843 3.843v0c0 2.12 1.722 3.878 3.843 3.878 2.12 0 3.842-1.757 3.842-3.878s-1.72-3.841-3.841-3.843h-0z"></path>
</symbol>
<symbol id="icon-linkedin-test" viewBox="0 0 32 32">
<path fill="#afb1b8" style="fill: var(--color3, #afb1b8)" d="M31.992 32h0.008v-11.738c0-5.741-1.235-10.163-7.947-10.163-3.227 0-5.392 1.77-6.277 3.45h-0.093v-2.914h-6.365v21.363h6.627v-10.578c0-2.786 0.528-5.48 3.978-5.48 3.398 0 3.45 3.179 3.45 5.658v10.402h6.619zM0.528 10.635h6.635v21.365h-6.635v-21.365zM3.843 0c-2.123 0-3.843 1.721-3.843 3.843v0c0 2.12 1.722 3.878 3.843 3.878 2.12 0 3.842-1.757 3.842-3.878s-1.72-3.841-3.841-3.843h-0z"></path>
</symbol>
<symbol id="icon-smartphone" viewBox="0 0 32 32">
<path fill="#757575" style="fill: var(--color5, #757575)" d="M23.467 0h-14.933c-1.764 0-3.2 1.34-3.2 2.987v25.89c0 1.647 1.436 2.987 3.2 2.987h14.933c1.764 0 3.2-1.34 3.2-2.987v-25.89c0-1.647-1.436-2.987-3.2-2.987zM8.533 1.99h14.933c0.589 0 1.067 0.448 1.067 0.996v20.911h-17.067v-20.911c0-0.548 0.478-0.996 1.067-0.996zM23.467 29.873h-14.933c-0.589 0-1.067-0.448-1.067-0.996v-2.987h17.067v2.987c0 0.548-0.478 0.994-1.067 0.994z"></path>
<path fill="#757575" style="fill: var(--color5, #757575)" d="M10.355 27.177c0.192 0.174 0.312 0.425 0.312 0.704s-0.12 0.53-0.312 0.703l-0.001 0.001c-0.198 0.182-0.464 0.293-0.755 0.293s-0.557-0.111-0.756-0.294l0.001 0.001c-0.192-0.174-0.312-0.425-0.312-0.704s0.12-0.53 0.312-0.703l0.001-0.001c0.198-0.182 0.464-0.293 0.755-0.293s0.557 0.111 0.756 0.294l-0.001-0.001z"></path>
</symbol>
<symbol id="icon-twitt" viewBox="0 0 32 32">
<path fill="#afb1b8" style="fill: var(--color3, #afb1b8)" d="M32 6.078c-1.1 0.493-2.376 0.857-3.713 1.028l-0.068 0.007c1.36-0.817 2.382-2.078 2.873-3.579l0.013-0.046c-1.197 0.722-2.591 1.273-4.076 1.573l-0.084 0.014c-1.2-1.279-2.9-2.076-4.787-2.076-3.622 0-6.558 2.936-6.558 6.558 0 0.001 0 0.003 0 0.004v-0c0 0.52 0.043 1.021 0.152 1.496-5.454-0.266-10.28-2.88-13.522-6.861-0.564 0.949-0.899 2.092-0.902 3.313v0.001c0 2.272 1.171 4.286 2.914 5.451-1.091-0.030-2.107-0.325-2.994-0.823l0.033 0.017v0.072c0.003 3.165 2.236 5.807 5.213 6.44l0.043 0.008c-0.499 0.136-1.071 0.215-1.662 0.215-0.020 0-0.041-0-0.061-0l0.003 0c-0.419 0-0.843-0.024-1.242-0.112 0.85 2.598 3.261 4.509 6.13 4.57-2.215 1.746-5.045 2.8-8.122 2.8-0.004 0-0.008 0-0.013 0h0.001c-0.018 0-0.040 0-0.062 0-0.531 0-1.055-0.034-1.569-0.099l0.061 0.006c2.826 1.846 6.287 2.944 10.004 2.944 0.021 0 0.042-0 0.063-0h-0.003c12.072 0 18.672-10 18.672-18.669 0-0.288-0.010-0.57-0.024-0.848 1.299-0.936 2.39-2.064 3.258-3.355l0.030-0.047z"></path>
</symbol>
</defs>
</svg>
